<svg xmlns="http://www.w3.org/2000/svg" xmlns:xlink="http://www.w3.org/1999/xlink" width="1920" zoomAndPan="magnify" viewBox="0 0 1440 809.999993" height="1080" preserveAspectRatio="xMidYMid meet" version="1.0"><defs><clipPath id="ef26455743"><path d="M 907 647 L 1034.835938 647 L 1034.835938 729 L 907 729 Z M 907 647 " clip-rule="nonzero"/></clipPath><clipPath id="31ac39d6ee"><path d="M 404.835938 647 L 532 647 L 532 729 L 404.835938 729 Z M 404.835938 647 " clip-rule="nonzero"/></clipPath></defs><path fill="#3e8ffa" d="M 500.539062 383.367188 L 612.386719 383.367188 L 612.386719 354.691406 C 612.386719 338.085938 617.390625 322.546875 625.941406 309.582031 L 625.941406 120.976562 L 500.539062 120.976562 L 500.539062 383.382812 Z M 577.53125 149.539062 L 591.414062 149.539062 C 596.417969 149.539062 600.515625 153.621094 600.515625 158.636719 C 600.515625 163.652344 596.433594 167.738281 591.414062 167.738281 L 577.53125 167.738281 C 572.527344 167.738281 568.429688 163.652344 568.429688 158.636719 C 568.429688 153.621094 572.511719 149.539062 577.53125 149.539062 Z M 577.53125 180.730469 L 591.414062 180.730469 C 596.417969 180.730469 600.515625 184.785156 600.515625 189.828125 C 600.515625 194.875 596.433594 198.929688 591.414062 198.929688 L 577.53125 198.929688 C 572.527344 198.929688 568.429688 194.847656 568.429688 189.828125 C 568.429688 184.8125 572.511719 180.730469 577.53125 180.730469 Z M 577.53125 211.910156 L 591.414062 211.910156 C 596.417969 211.910156 600.515625 215.960938 600.515625 221.007812 C 600.515625 226.054688 596.433594 230.105469 591.414062 230.105469 L 577.53125 230.105469 C 572.527344 230.105469 568.429688 226.023438 568.429688 221.007812 C 568.429688 215.992188 572.511719 211.910156 577.53125 211.910156 Z M 577.53125 243.101562 L 591.414062 243.101562 C 596.417969 243.101562 600.515625 247.15625 600.515625 252.199219 C 600.515625 257.246094 596.433594 261.300781 591.414062 261.300781 L 577.53125 261.300781 C 572.527344 261.300781 568.429688 257.21875 568.429688 252.199219 C 568.429688 247.183594 572.511719 243.101562 577.53125 243.101562 Z M 577.53125 274.28125 L 591.414062 274.28125 C 596.417969 274.28125 600.515625 278.332031 600.515625 283.378906 C 600.515625 288.421875 596.433594 292.433594 591.414062 292.433594 L 577.53125 292.433594 C 572.527344 292.433594 568.429688 288.378906 568.429688 283.378906 C 568.429688 278.375 572.511719 274.28125 577.53125 274.28125 Z M 577.53125 305.429688 L 591.414062 305.429688 C 596.417969 305.429688 600.515625 309.511719 600.515625 314.527344 C 600.515625 319.542969 596.433594 323.625 591.414062 323.625 L 577.53125 323.625 C 572.527344 323.625 568.429688 319.574219 568.429688 314.527344 C 568.429688 309.480469 572.511719 305.429688 577.53125 305.429688 Z M 577.53125 336.605469 L 591.414062 336.605469 C 596.417969 336.605469 600.515625 340.6875 600.515625 345.707031 C 600.515625 350.722656 596.433594 354.804688 591.414062 354.804688 L 577.53125 354.804688 C 572.527344 354.804688 568.429688 350.75 568.429688 345.707031 C 568.429688 340.660156 572.511719 336.605469 577.53125 336.605469 Z M 535.082031 149.539062 L 548.96875 149.539062 C 553.96875 149.539062 558.066406 153.621094 558.066406 158.636719 C 558.066406 163.652344 553.984375 167.738281 548.96875 167.738281 L 535.082031 167.738281 C 530.082031 167.738281 525.984375 163.652344 525.984375 158.636719 C 525.984375 153.621094 530.066406 149.539062 535.082031 149.539062 Z M 535.082031 180.730469 L 548.96875 180.730469 C 553.96875 180.730469 558.066406 184.785156 558.066406 189.828125 C 558.066406 194.875 553.984375 198.929688 548.96875 198.929688 L 535.082031 198.929688 C 530.082031 198.929688 525.984375 194.847656 525.984375 189.828125 C 525.984375 184.8125 530.066406 180.730469 535.082031 180.730469 Z M 535.082031 211.910156 L 548.96875 211.910156 C 553.96875 211.910156 558.066406 215.960938 558.066406 221.007812 C 558.066406 226.054688 553.984375 230.105469 548.96875 230.105469 L 535.082031 230.105469 C 530.082031 230.105469 525.984375 226.023438 525.984375 221.007812 C 525.984375 215.992188 530.066406 211.910156 535.082031 211.910156 Z M 535.082031 243.101562 L 548.96875 243.101562 C 553.96875 243.101562 558.066406 247.15625 558.066406 252.199219 C 558.066406 257.246094 553.984375 261.300781 548.96875 261.300781 L 535.082031 261.300781 C 530.082031 261.300781 525.984375 257.21875 525.984375 252.199219 C 525.984375 247.183594 530.066406 243.101562 535.082031 243.101562 Z M 535.082031 274.28125 L 548.96875 274.28125 C 553.96875 274.28125 558.066406 278.332031 558.066406 283.378906 C 558.066406 288.421875 553.984375 292.433594 548.96875 292.433594 L 535.082031 292.433594 C 530.082031 292.433594 525.984375 288.378906 525.984375 283.378906 C 525.984375 278.375 530.066406 274.28125 535.082031 274.28125 Z M 535.082031 305.429688 L 548.96875 305.429688 C 553.96875 305.429688 558.066406 309.511719 558.066406 314.527344 C 558.066406 319.542969 553.984375 323.625 548.96875 323.625 L 535.082031 323.625 C 530.082031 323.625 525.984375 319.574219 525.984375 314.527344 C 525.984375 309.480469 530.066406 305.429688 535.082031 305.429688 Z M 535.082031 336.605469 L 548.96875 336.605469 C 553.96875 336.605469 558.066406 340.6875 558.066406 345.707031 C 558.066406 350.722656 553.984375 354.804688 548.96875 354.804688 L 535.082031 354.804688 C 530.082031 354.804688 525.984375 350.75 525.984375 345.707031 C 525.984375 340.660156 530.066406 336.605469 535.082031 336.605469 Z M 535.082031 336.605469 " fill-opacity="1" fill-rule="nonzero"/><path fill="#fbbd80" d="M 719.910156 186.367188 C 695.6875 186.367188 675.878906 206.214844 675.878906 230.394531 C 675.878906 310.589844 763.953125 310.589844 763.953125 230.394531 C 763.953125 206.203125 744.144531 186.367188 719.921875 186.367188 Z M 719.910156 186.367188 " fill-opacity="1" fill-rule="nonzero"/><path fill="#282120" d="M 809.230469 403.878906 L 809.230469 354.691406 C 809.230469 319.414062 780.367188 290.550781 745.09375 290.550781 L 694.765625 290.550781 C 659.464844 290.550781 630.601562 319.414062 630.601562 354.691406 L 630.601562 403.878906 L 661.117188 403.878906 L 661.117188 367.238281 C 661.117188 362.234375 665.199219 358.140625 670.214844 358.140625 C 675.234375 358.140625 679.316406 362.222656 679.316406 367.238281 L 679.316406 403.878906 L 760.53125 403.878906 L 760.53125 367.238281 C 760.53125 362.234375 764.613281 358.140625 769.628906 358.140625 C 774.644531 358.140625 778.726562 362.222656 778.726562 367.238281 L 778.726562 403.878906 L 809.246094 403.878906 Z M 809.230469 403.878906 " fill-opacity="1" fill-rule="nonzero"/><g clip-path="url(#ef26455743)"><path fill="#ffab02" d="M 989.414062 647.753906 L 953.59375 647.753906 C 928.480469 647.753906 907.941406 668.296875 907.941406 693.40625 L 907.941406 728.421875 L 1035.066406 728.421875 L 1035.066406 693.40625 C 1035.066406 668.296875 1014.527344 647.753906 989.414062 647.753906 Z M 989.414062 647.753906 " fill-opacity="1" fill-rule="nonzero"/></g><path fill="#fbbd80" d="M 1002.808594 604.933594 C 1002.808594 587.699219 988.710938 573.597656 971.472656 573.597656 C 954.238281 573.597656 940.136719 587.699219 940.136719 604.933594 C 940.136719 662 1002.796875 662 1002.796875 604.933594 Z M 1002.808594 604.933594 " fill-opacity="1" fill-rule="nonzero"/><path fill="#fbbd80" d="M 499.664062 604.933594 C 499.664062 587.699219 485.5625 573.597656 468.328125 573.597656 C 451.09375 573.597656 436.992188 587.699219 436.992188 604.933594 C 436.992188 662 499.648438 662 499.648438 604.933594 Z M 499.664062 604.933594 " fill-opacity="1" fill-rule="nonzero"/><path fill="#fbbd80" d="M 688.570312 604.933594 C 688.570312 662 751.230469 662 751.230469 604.933594 C 751.230469 587.699219 737.128906 573.597656 719.894531 573.597656 C 702.660156 573.597656 688.558594 587.699219 688.558594 604.933594 Z M 688.570312 604.933594 " fill-opacity="1" fill-rule="nonzero"/><path fill="#3e8ffa" d="M 939.261719 383.367188 L 939.261719 120.976562 L 813.859375 120.976562 L 813.859375 309.597656 C 822.441406 322.5625 827.414062 338.085938 827.414062 354.703125 L 827.414062 383.382812 L 939.261719 383.382812 Z M 890.847656 149.539062 L 904.734375 149.539062 C 909.734375 149.539062 913.832031 153.621094 913.832031 158.636719 C 913.832031 163.652344 909.75 167.738281 904.734375 167.738281 L 890.847656 167.738281 C 885.847656 167.738281 881.75 163.652344 881.75 158.636719 C 881.75 153.621094 885.832031 149.539062 890.847656 149.539062 Z M 890.847656 180.730469 L 904.734375 180.730469 C 909.734375 180.730469 913.832031 184.785156 913.832031 189.828125 C 913.832031 194.875 909.75 198.929688 904.734375 198.929688 L 890.847656 198.929688 C 885.847656 198.929688 881.75 194.847656 881.75 189.828125 C 881.75 184.8125 885.832031 180.730469 890.847656 180.730469 Z M 890.847656 211.910156 L 904.734375 211.910156 C 909.734375 211.910156 913.832031 215.960938 913.832031 221.007812 C 913.832031 226.054688 909.75 230.105469 904.734375 230.105469 L 890.847656 230.105469 C 885.847656 230.105469 881.75 226.023438 881.75 221.007812 C 881.75 215.992188 885.832031 211.910156 890.847656 211.910156 Z M 890.847656 243.101562 L 904.734375 243.101562 C 909.734375 243.101562 913.832031 247.15625 913.832031 252.199219 C 913.832031 257.246094 909.75 261.300781 904.734375 261.300781 L 890.847656 261.300781 C 885.847656 261.300781 881.75 257.21875 881.75 252.199219 C 881.75 247.183594 885.832031 243.101562 890.847656 243.101562 Z M 890.847656 274.28125 L 904.734375 274.28125 C 909.734375 274.28125 913.832031 278.332031 913.832031 283.378906 C 913.832031 288.421875 909.75 292.433594 904.734375 292.433594 L 890.847656 292.433594 C 885.847656 292.433594 881.75 288.378906 881.75 283.378906 C 881.75 278.375 885.832031 274.28125 890.847656 274.28125 Z M 890.847656 305.429688 L 904.734375 305.429688 C 909.734375 305.429688 913.832031 309.511719 913.832031 314.527344 C 913.832031 319.542969 909.75 323.625 904.734375 323.625 L 890.847656 323.625 C 885.847656 323.625 881.75 319.574219 881.75 314.527344 C 881.75 309.480469 885.832031 305.429688 890.847656 305.429688 Z M 890.847656 336.605469 L 904.734375 336.605469 C 909.734375 336.605469 913.832031 340.6875 913.832031 345.707031 C 913.832031 350.722656 909.75 354.804688 904.734375 354.804688 L 890.847656 354.804688 C 885.847656 354.804688 881.75 350.75 881.75 345.707031 C 881.75 340.660156 885.832031 336.605469 890.847656 336.605469 Z M 848.402344 149.539062 L 862.285156 149.539062 C 867.289062 149.539062 871.386719 153.621094 871.386719 158.636719 C 871.386719 163.652344 867.304688 167.738281 862.285156 167.738281 L 848.402344 167.738281 C 843.398438 167.738281 839.300781 163.652344 839.300781 158.636719 C 839.300781 153.621094 843.382812 149.539062 848.402344 149.539062 Z M 848.402344 180.730469 L 862.285156 180.730469 C 867.289062 180.730469 871.386719 184.785156 871.386719 189.828125 C 871.386719 194.875 867.304688 198.929688 862.285156 198.929688 L 848.402344 198.929688 C 843.398438 198.929688 839.300781 194.847656 839.300781 189.828125 C 839.300781 184.8125 843.382812 180.730469 848.402344 180.730469 Z M 848.402344 211.910156 L 862.285156 211.910156 C 867.289062 211.910156 871.386719 215.960938 871.386719 221.007812 C 871.386719 226.054688 867.304688 230.105469 862.285156 230.105469 L 848.402344 230.105469 C 843.398438 230.105469 839.300781 226.023438 839.300781 221.007812 C 839.300781 215.992188 843.382812 211.910156 848.402344 211.910156 Z M 848.402344 243.101562 L 862.285156 243.101562 C 867.289062 243.101562 871.386719 247.15625 871.386719 252.199219 C 871.386719 257.246094 867.304688 261.300781 862.285156 261.300781 L 848.402344 261.300781 C 843.398438 261.300781 839.300781 257.21875 839.300781 252.199219 C 839.300781 247.183594 843.382812 243.101562 848.402344 243.101562 Z M 848.402344 274.28125 L 862.285156 274.28125 C 867.289062 274.28125 871.386719 278.332031 871.386719 283.378906 C 871.386719 288.421875 867.304688 292.433594 862.285156 292.433594 L 848.402344 292.433594 C 843.398438 292.433594 839.300781 288.378906 839.300781 283.378906 C 839.300781 278.375 843.382812 274.28125 848.402344 274.28125 Z M 848.402344 305.429688 L 862.285156 305.429688 C 867.289062 305.429688 871.386719 309.511719 871.386719 314.527344 C 871.386719 319.542969 867.304688 323.625 862.285156 323.625 L 848.402344 323.625 C 843.398438 323.625 839.300781 319.574219 839.300781 314.527344 C 839.300781 309.480469 843.382812 305.429688 848.402344 305.429688 Z M 848.402344 336.605469 L 862.285156 336.605469 C 867.289062 336.605469 871.386719 340.6875 871.386719 345.707031 C 871.386719 350.722656 867.304688 354.804688 862.285156 354.804688 L 848.402344 354.804688 C 843.398438 354.804688 839.300781 350.75 839.300781 345.707031 C 839.300781 340.660156 843.382812 336.605469 848.402344 336.605469 Z M 848.402344 336.605469 " fill-opacity="1" fill-rule="nonzero"/><path fill="#3e8ffa" d="M 795.703125 289.847656 L 795.703125 81.578125 L 644.125 81.578125 L 644.125 289.847656 C 651.34375 284.183594 659.550781 279.683594 668.390625 276.707031 C 661.765625 264.664062 657.679688 249.238281 657.679688 230.394531 C 657.679688 196.15625 685.667969 168.167969 719.910156 168.167969 C 754.148438 168.167969 782.136719 196.15625 782.136719 230.394531 C 782.136719 249.238281 778.082031 264.675781 771.425781 276.707031 C 780.296875 279.683594 788.472656 284.183594 795.71875 289.847656 Z M 701.609375 159.441406 L 683.828125 159.441406 C 678.828125 159.441406 674.730469 155.390625 674.730469 150.34375 C 674.730469 145.296875 678.8125 141.246094 683.828125 141.246094 L 701.609375 141.246094 C 706.613281 141.246094 710.707031 145.328125 710.707031 150.34375 C 710.707031 155.359375 706.625 159.441406 701.609375 159.441406 Z M 701.609375 128.265625 L 683.828125 128.265625 C 678.828125 128.265625 674.730469 124.210938 674.730469 119.164062 C 674.730469 114.121094 678.8125 110.066406 683.828125 110.066406 L 701.609375 110.066406 C 706.613281 110.066406 710.707031 114.148438 710.707031 119.164062 C 710.707031 124.183594 706.625 128.265625 701.609375 128.265625 Z M 755.988281 159.441406 L 738.207031 159.441406 C 733.203125 159.441406 729.109375 155.390625 729.109375 150.34375 C 729.109375 145.296875 733.191406 141.246094 738.207031 141.246094 L 755.988281 141.246094 C 760.992188 141.246094 765.085938 145.328125 765.085938 150.34375 C 765.085938 155.359375 761.003906 159.441406 755.988281 159.441406 Z M 755.988281 128.265625 L 738.207031 128.265625 C 733.203125 128.265625 729.109375 124.210938 729.109375 119.164062 C 729.109375 114.121094 733.191406 110.066406 738.207031 110.066406 L 755.988281 110.066406 C 760.992188 110.066406 765.085938 114.148438 765.085938 119.164062 C 765.085938 124.183594 761.003906 128.265625 755.988281 128.265625 Z M 755.988281 128.265625 " fill-opacity="1" fill-rule="nonzero"/><path fill="#405163" d="M 958.078125 492.972656 C 960.722656 495.660156 962.390625 499.339844 962.390625 503.394531 L 962.390625 556.261719 C 965.335938 555.714844 968.382812 555.414062 971.488281 555.414062 C 974.59375 555.414062 977.640625 555.714844 980.585938 556.261719 L 980.585938 503.394531 C 980.585938 494.335938 976.90625 486.085938 970.941406 480.121094 C 964.976562 474.15625 956.769531 470.476562 947.671875 470.476562 L 729.007812 470.476562 L 729.007812 422.0625 L 710.824219 422.0625 L 710.824219 470.476562 L 492.144531 470.476562 C 483.089844 470.476562 474.839844 474.15625 468.875 480.121094 C 462.910156 486.085938 459.230469 494.335938 459.230469 503.394531 L 459.230469 556.261719 C 462.175781 555.714844 465.238281 555.414062 468.328125 555.414062 C 471.417969 555.414062 474.480469 555.714844 477.425781 556.261719 L 477.425781 503.394531 C 477.425781 499.339844 479.078125 495.660156 481.738281 492.972656 C 484.425781 490.328125 488.105469 488.660156 492.160156 488.660156 L 710.824219 488.660156 L 710.824219 556.261719 C 713.769531 555.714844 716.816406 555.414062 719.921875 555.414062 C 723.027344 555.414062 726.074219 555.714844 729.023438 556.261719 L 729.023438 488.660156 L 947.683594 488.660156 C 951.738281 488.660156 955.417969 490.3125 958.105469 492.972656 Z M 958.078125 492.972656 " fill-opacity="1" fill-rule="nonzero"/><path fill="#3e8ffa" d="M 737.804688 647.753906 L 702.011719 647.753906 C 676.898438 647.753906 656.359375 668.296875 656.359375 693.40625 L 656.359375 728.421875 L 783.484375 728.421875 L 783.484375 693.40625 C 783.484375 668.296875 762.902344 647.753906 737.789062 647.753906 Z M 737.804688 647.753906 " fill-opacity="1" fill-rule="nonzero"/><g clip-path="url(#31ac39d6ee)"><path fill="#282120" d="M 486.222656 647.753906 L 450.433594 647.753906 C 425.320312 647.753906 404.777344 668.296875 404.777344 693.40625 L 404.777344 728.421875 L 531.878906 728.421875 L 531.878906 693.40625 C 531.878906 668.296875 511.335938 647.753906 486.222656 647.753906 Z M 486.222656 647.753906 " fill-opacity="1" fill-rule="nonzero"/></g></svg>