<?xml version="1.0" encoding="UTF-8"?>
<svg version="1.1" xmlns="http://www.w3.org/2000/svg" width="124" height="124">
<path d="M0 0 C3.16539492 1.78441381 6.09028256 3.82741098 9 6 C5.83936913 8.60332156 2.6568348 10.14038576 -1.125 11.6875 C-2.17945313 12.12449219 -3.23390625 12.56148437 -4.3203125 13.01171875 C-7 14 -7 14 -9 14 C-9 16.31 -9 18.62 -9 21 C-8.01 21 -7.02 21 -6 21 C-5.71125 20.21625 -5.4225 19.4325 -5.125 18.625 C-4 16 -4 16 -2 14 C2.5710714 13.3469898 5.96576829 14.94482536 10 17 C12.1519437 20.22791555 12.20086443 21.28400809 12 25 C12.76078857 24.92330078 13.52157715 24.84660156 14.30541992 24.76757812 C17 25 17 25 18.66918945 26.56054688 C19.14573975 27.27275391 19.62229004 27.98496094 20.11328125 28.71875 C20.63857422 29.48574219 21.16386719 30.25273438 21.70507812 31.04296875 C22.23552734 31.85378906 22.76597656 32.66460937 23.3125 33.5 C23.86228516 34.31082031 24.41207031 35.12164062 24.97851562 35.95703125 C26.33456593 37.96162735 27.67389176 39.97552332 29 42 C30.32 41.34 31.64 40.68 33 40 C34.485 40.99 34.485 40.99 36 42 C36.86625 40.7934375 36.86625 40.7934375 37.75 39.5625 C40 37 40 37 42 35.9375 C44 36 44 36 46.25 37.4375 C48.81355047 41.19127034 48.42906779 43.49478825 48 48 C47.34 48.99 46.68 49.98 46 51 C48.97 52.65 51.94 54.3 55 56 C55 57.32 55 58.64 55 60 C54.04287109 60.50660156 54.04287109 60.50660156 53.06640625 61.0234375 C52.24011719 61.46945313 51.41382812 61.91546875 50.5625 62.375 C49.73878906 62.81585938 48.91507812 63.25671875 48.06640625 63.7109375 C45.86533422 64.83418559 45.86533422 64.83418559 45 67 C45.928125 67.28875 46.85625 67.5775 47.8125 67.875 C51 69 51 69 54 71 C54 72.32 54 73.64 54 75 C53.17242187 75.43828125 52.34484375 75.8765625 51.4921875 76.328125 C43.94564102 80.33448994 36.43164036 84.39645923 28.9375 88.5 C19.65525775 93.57791298 10.33515061 98.5827726 1 103.5625 C0.34571014 103.91183594 -0.30857971 104.26117188 -0.98269653 104.62109375 C-2.86294901 105.62466827 -4.74384395 106.62702665 -6.625 107.62890625 C-7.71039063 108.20713135 -8.79578125 108.78535645 -9.9140625 109.38110352 C-10.93242188 109.91533936 -11.95078125 110.4495752 -13 111 C-14.06774658 111.5779834 -15.13549316 112.1559668 -16.2355957 112.75146484 C-19 114 -19 114 -21.60546875 113.34765625 C-23.86685281 112.07493602 -26.11032445 110.81043716 -28.3125 109.4375 C-32.03340515 107.16085729 -35.79098513 104.98334446 -39.60620117 102.87084961 C-42.35915696 101.34239151 -45.0971496 99.78830987 -47.83300781 98.22949219 C-49.31282406 97.38988486 -50.79675963 96.55750715 -52.28417969 95.73144531 C-54.53869013 94.47171249 -56.77022776 93.17791205 -59 91.875 C-59.7007666 91.49182617 -60.4015332 91.10865234 -61.12353516 90.71386719 C-63.0625 89.5546875 -63.0625 89.5546875 -66 87 C-66.4375 83.1953125 -66.4375 83.1953125 -66 80 C-58 76 -50 72 -42 68 C-48.6 64.04 -55.2 60.08 -62 56 C-61 51 -61 51 -58.49609375 49.19921875 C-57.48675781 48.70035156 -56.47742188 48.20148437 -55.4375 47.6875 C-53.91962891 46.91986328 -53.91962891 46.91986328 -52.37109375 46.13671875 C-51.58863281 45.76160156 -50.80617188 45.38648438 -50 45 C-50.48726562 44.401875 -50.97453125 43.80375 -51.4765625 43.1875 C-53.51688972 40.25779937 -53.43806055 38.5044844 -53 35 C-51.8125 32.625 -51.8125 32.625 -50 31 C-47.3125 30.75 -47.3125 30.75 -45 31 C-44.67 29.68 -44.34 28.36 -44 27 C-45.13888672 27.55880859 -45.13888672 27.55880859 -46.30078125 28.12890625 C-47.29464844 28.60199219 -48.28851563 29.07507813 -49.3125 29.5625 C-50.29863281 30.03816406 -51.28476562 30.51382813 -52.30078125 31.00390625 C-55 32 -55 32 -58 31 C-57.34 30.01 -56.68 29.02 -56 28 C-55.34 28 -54.68 28 -54 28 C-53.896875 27.0925 -53.79375 26.185 -53.6875 25.25 C-52.96858869 21.85151019 -52.13993241 20.63376297 -50 18 C-49.484375 16.96875 -48.96875 15.9375 -48.4375 14.875 C-47 12 -47 12 -45 10 C-42.31160615 9.73008094 -39.70858064 9.91262643 -37 10 C-36.34 11.32 -35.68 12.64 -35 14 C-33.02 14 -31.04 14 -29 14 C-28.7525 14.7425 -28.505 15.485 -28.25 16.25 C-27.18881611 19.08426277 -27.18881611 19.08426277 -24.9375 20.8125 C-22.08331344 24.0349687 -22.28287435 26.75688478 -22 31 C-17.93975679 28.96197865 -17.93975679 28.96197865 -16 25 C-16.61875 24.731875 -17.2375 24.46375 -17.875 24.1875 C-20 23 -20 23 -22 20 C-22.48839942 16.25560448 -22.22183832 14.41705604 -20.4375 11.0625 C-18 9 -18 9 -14.25 9.1875 C-13.1775 9.455625 -12.105 9.72375 -11 10 C-11 9.34 -11 8.68 -11 8 C-10.34 8 -9.68 8 -9 8 C-9.061875 7.236875 -9.12375 6.47375 -9.1875 5.6875 C-9 3 -9 3 -7.875 1.1875 C-4.93954654 -0.67162052 -3.45112561 -0.5751876 0 0 Z M-38 24 C-35.525 24.99 -35.525 24.99 -33 26 C-32.67 24.68 -32.34 23.36 -32 22 C-35.18490007 21.7226499 -35.18490007 21.7226499 -38 24 Z M-13 24 C-13.33 24.99 -13.66 25.98 -14 27 C-13.34 27 -12.68 27 -12 27 C-11.67 26.01 -11.34 25.02 -11 24 C-11.66 24 -12.32 24 -13 24 Z M-32 33 C-32.33 34.32 -32.66 35.64 -33 37 C-31.68 36.34 -30.36 35.68 -29 35 C-29.99 34.34 -30.98 33.68 -32 33 Z M-42 37 C-42 38.65 -42 40.3 -42 42 C-41.01 41.34 -40.02 40.68 -39 40 C-39 39.34 -39 38.68 -39 38 C-39.99 37.67 -40.98 37.34 -42 37 Z " fill="#71791E" transform="translate(66,6)"/>
<path d="M0 0 C0 1.98 0 3.96 0 6 C-0.99 6.33 -1.98 6.66 -3 7 C-1.85814266 11.47959418 -0.56984833 15.14522751 2 19 C6.65208836 17.27947899 10.60484829 14.86682671 14.79296875 12.2421875 C17 11 17 11 19 11 C20.16676209 15.3696384 20.40488534 18.66620175 19 23 C16.57993564 25.58696535 13.84789062 27.4683137 10.875 29.375 C10.11582275 29.86911377 9.35664551 30.36322754 8.57446289 30.87231445 C2.95836018 34.18446796 2.95836018 34.18446796 -1.4296875 33.33984375 C-2.27789062 32.89769531 -3.12609375 32.45554688 -4 32 C-5.9519572 31.0950739 -5.9519572 31.0950739 -8 31 C-10.01586684 31.96761608 -12.01753602 32.96567096 -14 34 C-14.99 33.505 -14.99 33.505 -16 33 C-16.33 33.99 -16.66 34.98 -17 36 C-19.4830523 37.39699062 -22.04169702 38.4829269 -24.65234375 39.62109375 C-27.25942414 41.15237391 -27.96354537 42.21045638 -29 45 C-27.35 45.66 -25.7 46.32 -24 47 C-24 47.66 -24 48.32 -24 49 C-21.03 49.495 -21.03 49.495 -18 50 C-17.67 50.99 -17.34 51.98 -17 53 C-15.948125 53.185625 -15.948125 53.185625 -14.875 53.375 C-12 54 -12 54 -9.29296875 55.296875 C-5.388144 56.13064541 -3.82131868 55.28850595 -0.49267578 53.22851562 C0.18553223 52.78185547 0.86374023 52.33519531 1.5625 51.875 C3.05470369 50.94324997 4.54826102 50.01366525 6.04296875 49.0859375 C7.232854 48.33715332 7.232854 48.33715332 8.44677734 47.57324219 C13.01715649 44.75707053 17.70174106 42.14058291 22.375 39.5 C24.15439525 38.49090368 25.93309267 37.48057538 27.7109375 36.46875 C28.46681152 36.04013672 29.22268555 35.61152344 30.00146484 35.16992188 C31.70415519 34.1731845 33.35838357 33.09441095 35 32 C40.22314481 32.23741567 43.66381853 34.31156749 48 37 C48 38.32 48 39.64 48 41 C47.17242187 41.43828125 46.34484375 41.8765625 45.4921875 42.328125 C37.94564102 46.33448994 30.43164036 50.39645923 22.9375 54.5 C13.65525775 59.57791298 4.33515061 64.5827726 -5 69.5625 C-5.65428986 69.91183594 -6.30857971 70.26117188 -6.98269653 70.62109375 C-8.86294901 71.62466827 -10.74384395 72.62702665 -12.625 73.62890625 C-13.71039063 74.20713135 -14.79578125 74.78535645 -15.9140625 75.38110352 C-16.93242188 75.91533936 -17.95078125 76.4495752 -19 77 C-20.06774658 77.5779834 -21.13549316 78.1559668 -22.2355957 78.75146484 C-25 80 -25 80 -27.60546875 79.34765625 C-29.86685281 78.07493602 -32.11032445 76.81043716 -34.3125 75.4375 C-38.03340515 73.16085729 -41.79098513 70.98334446 -45.60620117 68.87084961 C-48.35915696 67.34239151 -51.0971496 65.78830987 -53.83300781 64.22949219 C-55.31282406 63.38988486 -56.79675963 62.55750715 -58.28417969 61.73144531 C-60.53869013 60.47171249 -62.77022776 59.17791205 -65 57.875 C-65.7007666 57.49182617 -66.4015332 57.10865234 -67.12353516 56.71386719 C-69.0625 55.5546875 -69.0625 55.5546875 -72 53 C-72.4375 49.1953125 -72.4375 49.1953125 -72 46 C-68.07430468 43.99331703 -64.14156371 42.00853117 -60.1796875 40.07421875 C-57.76626986 38.89551031 -55.45766135 37.68449781 -53.1328125 36.33203125 C-50.57782016 34.97076484 -48.89841906 34.17022461 -46 34 C-41.5830629 35.78680391 -37.82936097 38.18390636 -34 41 C-34 40.01 -34 39.02 -34 38 C-27.25 34 -27.25 34 -25 34 C-25 33.01 -25 32.02 -25 31 C-23.5 29.3125 -23.5 29.3125 -22 28 C-22.99 27.67 -23.98 27.34 -25 27 C-25.04898438 26.36191406 -25.09796875 25.72382812 -25.1484375 25.06640625 C-25.22320312 24.24011719 -25.29796875 23.41382812 -25.375 22.5625 C-25.47941406 21.32693359 -25.47941406 21.32693359 -25.5859375 20.06640625 C-25.79089844 19.04353516 -25.79089844 19.04353516 -26 18 C-26.66 17.67 -27.32 17.34 -28 17 C-28.33 19.31 -28.66 21.62 -29 24 C-29.99 23.67 -30.98 23.34 -32 23 C-32 20.69 -32 18.38 -32 16 C-33.32 15.67 -34.64 15.34 -36 15 C-36 14.34 -36 13.68 -36 13 C-34.68 13 -33.36 13 -32 13 C-31.9071875 12.1028125 -31.9071875 12.1028125 -31.8125 11.1875 C-30.65729457 8.07733153 -28.93122813 7.39582292 -26 6 C-25.01 6 -24.02 6 -23 6 C-21.28771335 8.26530496 -19.7909964 10.46507445 -18.3125 12.875 C-17.89677734 13.52597656 -17.48105469 14.17695312 -17.05273438 14.84765625 C-14 19.70997537 -14 19.70997537 -14 22 C-12.02 21.34 -10.04 20.68 -8 20 C-8.15597656 19.33613281 -8.31195313 18.67226563 -8.47265625 17.98828125 C-8.66730469 17.10527344 -8.86195312 16.22226562 -9.0625 15.3125 C-9.35833984 14.00732422 -9.35833984 14.00732422 -9.66015625 12.67578125 C-10.02032279 9.83998724 -9.70909969 7.75210018 -9 5 C-7.515 4.505 -7.515 4.505 -6 4 C-5.67 3.01 -5.34 2.02 -5 1 C-3 0 -3 0 0 0 Z " fill="#F5F7F6" transform="translate(72,40)"/>
<path d="M0 0 C3.16539492 1.78441381 6.09028256 3.82741098 9 6 C5.83936913 8.60332156 2.6568348 10.14038576 -1.125 11.6875 C-2.17945313 12.12449219 -3.23390625 12.56148437 -4.3203125 13.01171875 C-7 14 -7 14 -9 14 C-9 16.31 -9 18.62 -9 21 C-8.01 21 -7.02 21 -6 21 C-5.71125 20.21625 -5.4225 19.4325 -5.125 18.625 C-4 16 -4 16 -2 14 C2.5710714 13.3469898 5.96576829 14.94482536 10 17 C12.14201526 20.21302289 12.65325876 21.26709281 12 25 C9.8125 26.9375 9.8125 26.9375 7 28 C4.5625 27.25 4.5625 27.25 2 26 C-0.9284408 25.02242386 -2.97318384 24.53487375 -5.85620117 25.84082031 C-7.93530086 27.14439315 -9.90450525 28.5374633 -11.875 30 C-12.57955322 30.5045874 -13.28410645 31.0091748 -14.01000977 31.52905273 C-22.62450738 37.22911535 -22.62450738 37.22911535 -29 45 C-28.01 44.67 -27.02 44.34 -26 44 C-26 44.99 -26 45.98 -26 47 C-27.32 47 -28.64 47 -30 47 C-30 47.66 -30 48.32 -30 49 C-28.68 49.33 -27.36 49.66 -26 50 C-25.505 53.465 -25.505 53.465 -25 57 C-23.18585949 55.18585949 -23.3649546 52.45040946 -23 50 C-21.0390625 50.71484375 -21.0390625 50.71484375 -19 52 C-18.4609375 54.12890625 -18.4609375 54.12890625 -18.375 56.5625 C-18.31475263 58.93592047 -18.31475263 58.93592047 -18 61 C-17.01 61.495 -17.01 61.495 -16 62 C-16.33 62.99 -16.66 63.98 -17 65 C-17.66 65 -18.32 65 -19 65 C-19 65.99 -19 66.98 -19 68 C-25.75 72 -25.75 72 -28 72 C-28 72.99 -28 73.98 -28 75 C-32.81723147 73.26310977 -37.169972 70.80527166 -41.625 68.3125 C-42.4195459 67.86986816 -43.2140918 67.42723633 -44.03271484 66.97119141 C-50.1680115 63.52670506 -56.14011767 59.8979834 -62 56 C-61.84765625 53.70703125 -61.84765625 53.70703125 -61 51 C-58.49609375 49.19921875 -58.49609375 49.19921875 -55.4375 47.6875 C-54.42558594 47.17574219 -53.41367187 46.66398437 -52.37109375 46.13671875 C-51.58863281 45.76160156 -50.80617188 45.38648438 -50 45 C-50.48726562 44.401875 -50.97453125 43.80375 -51.4765625 43.1875 C-53.51688972 40.25779937 -53.43806055 38.5044844 -53 35 C-51.8125 32.625 -51.8125 32.625 -50 31 C-47.3125 30.75 -47.3125 30.75 -45 31 C-44.67 29.68 -44.34 28.36 -44 27 C-45.13888672 27.55880859 -45.13888672 27.55880859 -46.30078125 28.12890625 C-47.29464844 28.60199219 -48.28851563 29.07507813 -49.3125 29.5625 C-50.29863281 30.03816406 -51.28476562 30.51382813 -52.30078125 31.00390625 C-55 32 -55 32 -58 31 C-57.34 30.01 -56.68 29.02 -56 28 C-55.34 28 -54.68 28 -54 28 C-53.896875 27.0925 -53.79375 26.185 -53.6875 25.25 C-52.96858869 21.85151019 -52.13993241 20.63376297 -50 18 C-49.484375 16.96875 -48.96875 15.9375 -48.4375 14.875 C-47 12 -47 12 -45 10 C-42.31160615 9.73008094 -39.70858064 9.91262643 -37 10 C-36.34 11.32 -35.68 12.64 -35 14 C-33.02 14 -31.04 14 -29 14 C-28.7525 14.7425 -28.505 15.485 -28.25 16.25 C-27.18881611 19.08426277 -27.18881611 19.08426277 -24.9375 20.8125 C-22.08331344 24.0349687 -22.28287435 26.75688478 -22 31 C-17.93975679 28.96197865 -17.93975679 28.96197865 -16 25 C-16.61875 24.731875 -17.2375 24.46375 -17.875 24.1875 C-20 23 -20 23 -22 20 C-22.48839942 16.25560448 -22.22183832 14.41705604 -20.4375 11.0625 C-18 9 -18 9 -14.25 9.1875 C-13.1775 9.455625 -12.105 9.72375 -11 10 C-11 9.34 -11 8.68 -11 8 C-10.34 8 -9.68 8 -9 8 C-9.061875 7.236875 -9.12375 6.47375 -9.1875 5.6875 C-9 3 -9 3 -7.875 1.1875 C-4.93954654 -0.67162052 -3.45112561 -0.5751876 0 0 Z M-38 24 C-35.525 24.99 -35.525 24.99 -33 26 C-32.67 24.68 -32.34 23.36 -32 22 C-35.18490007 21.7226499 -35.18490007 21.7226499 -38 24 Z M-13 24 C-13.33 24.99 -13.66 25.98 -14 27 C-13.34 27 -12.68 27 -12 27 C-11.67 26.01 -11.34 25.02 -11 24 C-11.66 24 -12.32 24 -13 24 Z M-32 33 C-32.33 34.32 -32.66 35.64 -33 37 C-31.68 36.34 -30.36 35.68 -29 35 C-29.99 34.34 -30.98 33.68 -32 33 Z M-42 37 C-42 38.65 -42 40.3 -42 42 C-41.01 41.34 -40.02 40.68 -39 40 C-39 39.34 -39 38.68 -39 38 C-39.99 37.67 -40.98 37.34 -42 37 Z " fill="#889524" transform="translate(66,6)"/>
<path d="M0 0 C0 1.98 0 3.96 0 6 C-0.99 6.33 -1.98 6.66 -3 7 C-1.85814266 11.47959418 -0.56984833 15.14522751 2 19 C6.65208836 17.27947899 10.60484829 14.86682671 14.79296875 12.2421875 C17 11 17 11 19 11 C20.16676209 15.3696384 20.40488534 18.66620175 19 23 C16.57993564 25.58696535 13.84789062 27.4683137 10.875 29.375 C10.11582275 29.86911377 9.35664551 30.36322754 8.57446289 30.87231445 C2.95836018 34.18446796 2.95836018 34.18446796 -1.4296875 33.33984375 C-2.27789062 32.89769531 -3.12609375 32.45554688 -4 32 C-5.9519572 31.0950739 -5.9519572 31.0950739 -8 31 C-10.01586684 31.96761608 -12.01753602 32.96567096 -14 34 C-14.99 33.505 -14.99 33.505 -16 33 C-16.33 33.99 -16.66 34.98 -17 36 C-19.4830523 37.39699062 -22.04169702 38.4829269 -24.65234375 39.62109375 C-27.25942414 41.15237391 -27.96354537 42.21045638 -29 45 C-27.35 45.66 -25.7 46.32 -24 47 C-24 47.66 -24 48.32 -24 49 C-21.03 49.495 -21.03 49.495 -18 50 C-19.8125 51.5625 -19.8125 51.5625 -22 53 C-22.99 52.67 -23.98 52.34 -25 52 C-25 50.68 -25 49.36 -25 48 C-25.721875 47.731875 -26.44375 47.46375 -27.1875 47.1875 C-30 46 -30 46 -32.5 44.3125 C-35.70787393 42.62836619 -36.54500212 42.99051502 -40 44 C-42.7442375 45.22634252 -45.40100313 46.60460476 -48.0625 48 C-49.46810482 48.73291336 -50.87560324 49.46220888 -52.28515625 50.1875 C-52.90269775 50.51105469 -53.52023926 50.83460937 -54.15649414 51.16796875 C-56.08229536 52.03714244 -57.93957493 52.54927312 -60 53 C-60 52.34 -60 51.68 -60 51 C-61.65 51 -63.3 51 -65 51 C-64.67 50.34 -64.34 49.68 -64 49 C-63.34 49.33 -62.68 49.66 -62 50 C-62 49.01 -62 48.02 -62 47 C-59.8967433 46.01888025 -57.79236311 45.04016866 -55.6875 44.0625 C-53.92986328 43.24458984 -53.92986328 43.24458984 -52.13671875 42.41015625 C-49 41 -49 41 -46 40 C-45.01 39.34 -44.02 38.68 -43 38 C-39.61306808 38.34737763 -36.96278714 39.35400715 -34 41 C-34 40.01 -34 39.02 -34 38 C-27.25 34 -27.25 34 -25 34 C-25 33.01 -25 32.02 -25 31 C-23.5 29.3125 -23.5 29.3125 -22 28 C-22.99 27.67 -23.98 27.34 -25 27 C-25.04898438 26.36191406 -25.09796875 25.72382812 -25.1484375 25.06640625 C-25.22320312 24.24011719 -25.29796875 23.41382812 -25.375 22.5625 C-25.47941406 21.32693359 -25.47941406 21.32693359 -25.5859375 20.06640625 C-25.79089844 19.04353516 -25.79089844 19.04353516 -26 18 C-26.66 17.67 -27.32 17.34 -28 17 C-28.33 19.31 -28.66 21.62 -29 24 C-29.99 23.67 -30.98 23.34 -32 23 C-32 20.69 -32 18.38 -32 16 C-33.32 15.67 -34.64 15.34 -36 15 C-36 14.34 -36 13.68 -36 13 C-34.68 13 -33.36 13 -32 13 C-31.9071875 12.1028125 -31.9071875 12.1028125 -31.8125 11.1875 C-30.65729457 8.07733153 -28.93122813 7.39582292 -26 6 C-25.01 6 -24.02 6 -23 6 C-21.28771335 8.26530496 -19.7909964 10.46507445 -18.3125 12.875 C-17.89677734 13.52597656 -17.48105469 14.17695312 -17.05273438 14.84765625 C-14 19.70997537 -14 19.70997537 -14 22 C-12.02 21.34 -10.04 20.68 -8 20 C-8.15597656 19.33613281 -8.31195313 18.67226563 -8.47265625 17.98828125 C-8.66730469 17.10527344 -8.86195312 16.22226562 -9.0625 15.3125 C-9.35833984 14.00732422 -9.35833984 14.00732422 -9.66015625 12.67578125 C-10.02032279 9.83998724 -9.70909969 7.75210018 -9 5 C-8.01 4.67 -7.02 4.34 -6 4 C-5.67 3.01 -5.34 2.02 -5 1 C-3 0 -3 0 0 0 Z " fill="#CED4D4" transform="translate(72,40)"/>
<path d="M0 0 C0.86625 0.391875 1.7325 0.78375 2.625 1.1875 C4.95396734 2.28687871 4.95396734 2.28687871 6.9375 1.125 C7.618125 0.75375 8.29875 0.3825 9 0 C11.76171875 -0.55859375 11.76171875 -0.55859375 15 0 C17.40687182 2.30818195 19.0983464 5.00509764 20.875 7.8125 C21.37257812 8.55048828 21.87015625 9.28847656 22.3828125 10.04882812 C26 15.53920201 26 15.53920201 26 19 C25.3709375 19.30292969 24.741875 19.60585938 24.09375 19.91796875 C19.05022675 22.3865607 14.30069848 24.9656925 9.69140625 28.1796875 C8 29 8 29 5 28 C1.67105798 23.91015695 0.49772569 21.27388024 1 16 C1.66 15.67 2.32 15.34 3 15 C3.65772428 11.97065509 3.65772428 11.97065509 4 9 C2.35 9.33 0.7 9.66 -1 10 C-1.103125 10.639375 -1.20625 11.27875 -1.3125 11.9375 C-1.539375 12.618125 -1.76625 13.29875 -2 14 C-2.99 14.33 -3.98 14.66 -5 15 C-4.505 21.93 -4.505 21.93 -4 29 C-7 31 -7 31 -10 31 C-11.71228665 28.73469504 -13.2090036 26.53492555 -14.6875 24.125 C-15.10322266 23.47402344 -15.51894531 22.82304688 -15.94726562 22.15234375 C-19 17.29002463 -19 17.29002463 -19 15 C-19.69867188 15.3609375 -20.39734375 15.721875 -21.1171875 16.09375 C-22.02726562 16.5578125 -22.93734375 17.021875 -23.875 17.5 C-24.77992187 17.9640625 -25.68484375 18.428125 -26.6171875 18.90625 C-29 20 -29 20 -31 20 C-27.8687985 12.18958727 -18.29289031 7.07546502 -11.6875 2.375 C-10.74261719 1.70210937 -9.79773438 1.02921875 -8.82421875 0.3359375 C-5.35074076 -1.30711848 -3.65047677 -1.0205088 0 0 Z " fill="#1C4763" transform="translate(68,31)"/>
<path d="M0 0 C0 1.98 0 3.96 0 6 C-0.99 6.33 -1.98 6.66 -3 7 C-1.85814266 11.47959418 -0.56984833 15.14522751 2 19 C6.65208836 17.27947899 10.60484829 14.86682671 14.79296875 12.2421875 C17 11 17 11 19 11 C20.16676209 15.3696384 20.40488534 18.66620175 19 23 C16.57993564 25.58696535 13.84789062 27.4683137 10.875 29.375 C10.11582275 29.86911377 9.35664551 30.36322754 8.57446289 30.87231445 C2.95669721 34.18544872 2.95669721 34.18544872 -1.42578125 33.3359375 C-2.27527344 32.89507812 -3.12476562 32.45421875 -4 32 C-8.1158035 30.50334418 -8.27446899 31.1097876 -13 33 C-13 29.37 -13 25.74 -13 22 C-11.35 21.34 -9.7 20.68 -8 20 C-8.15597656 19.33613281 -8.31195313 18.67226563 -8.47265625 17.98828125 C-8.76462891 16.66376953 -8.76462891 16.66376953 -9.0625 15.3125 C-9.25972656 14.44238281 -9.45695312 13.57226562 -9.66015625 12.67578125 C-10.02032279 9.83998724 -9.70909969 7.75210018 -9 5 C-8.01 4.67 -7.02 4.34 -6 4 C-5.67 3.01 -5.34 2.02 -5 1 C-3 0 -3 0 0 0 Z " fill="#929BA5" transform="translate(72,40)"/>
<path d="M0 0 C0.33 0.66 0.66 1.32 1 2 C1.96486328 1.89171875 1.96486328 1.89171875 2.94921875 1.78125 C9.47967007 1.11050464 15.88183011 0.9389521 22.4453125 1.0625 C24.93446886 1.2953982 24.93446886 1.2953982 26 0 C28.53049402 -0.07313567 31.03304837 -0.09247527 33.5625 -0.0625 C34.62887695 -0.05573242 34.62887695 -0.05573242 35.71679688 -0.04882812 C37.47790013 -0.03700864 39.23896036 -0.01907263 41 0 C41 0.66 41 1.32 41 2 C40.00987915 2.55929199 40.00987915 2.55929199 38.99975586 3.12988281 C35.97890376 4.83641134 32.95820074 6.54320357 29.9375 8.25 C28.89916016 8.83652344 27.86082031 9.42304687 26.79101562 10.02734375 C25.77587891 10.60097656 24.76074219 11.17460938 23.71484375 11.765625 C22.72468262 12.32056641 21.73452148 12.87550781 20.71435547 13.44726562 C19.07981885 14.38229466 17.45882835 15.34252311 15.86767578 16.34960938 C13.40170605 17.90312352 11.5644789 18.98429437 8.61328125 19.06640625 C4.56814741 17.41570141 0.9125475 15.20749961 -2.8125 12.9375 C-3.99489258 12.22883789 -3.99489258 12.22883789 -5.20117188 11.50585938 C-7.13812608 10.34368685 -9.07078295 9.17495583 -11 8 C-11.33 8.66 -11.66 9.32 -12 10 C-11.63108098 7.37843912 -11.32833246 6.2731196 -9.2578125 4.55078125 C-8.55398437 4.14214844 -7.85015625 3.73351562 -7.125 3.3125 C-6.42632812 2.89613281 -5.72765625 2.47976562 -5.0078125 2.05078125 C-3 1 -3 1 0 0 Z " fill="#8B902A" transform="translate(55,75)"/>
<path d="M0 0 C3.30503491 3.30503491 5.67907087 6.22038925 8.25 10.0625 C8.95640625 11.10535156 9.6628125 12.14820313 10.390625 13.22265625 C12 16 12 16 12 19 C11.3709375 19.30292969 10.741875 19.60585938 10.09375 19.91796875 C5.05022675 22.3865607 0.30069848 24.9656925 -4.30859375 28.1796875 C-6 29 -6 29 -9 28 C-12.32894202 23.91015695 -13.50227431 21.27388024 -13 16 C-12.34 15.67 -11.68 15.34 -11 15 C-10.34227572 11.97065509 -10.34227572 11.97065509 -10 9 C-10.99 8.67 -11.98 8.34 -13 8 C-8.71 5.36 -4.42 2.72 0 0 Z " fill="#194561" transform="translate(82,31)"/>
<path d="M0 0 C2.475 0.495 2.475 0.495 5 1 C5.495 4.465 5.495 4.465 6 8 C7.81414051 6.18585949 7.6350454 3.45040946 8 1 C9.9609375 1.71484375 9.9609375 1.71484375 12 3 C12.5390625 5.12890625 12.5390625 5.12890625 12.625 7.5625 C12.68524737 9.93592047 12.68524737 9.93592047 13 12 C13.66 12.33 14.32 12.66 15 13 C14.67 13.99 14.34 14.98 14 16 C13.34 16 12.68 16 12 16 C12 16.99 12 17.98 12 19 C5.25 23 5.25 23 3 23 C3 23.99 3 24.98 3 26 C-1.81704506 24.26317698 -6.17048481 21.80591372 -10.625 19.3125 C-11.4195459 18.86841797 -12.2140918 18.42433594 -13.03271484 17.96679688 C-26.9807441 10.11625127 -26.9807441 10.11625127 -31 7 C-31 6.34 -31 5.68 -31 5 C-26.98290687 5.57979593 -24.23865156 6.83814804 -20.8046875 8.9765625 C-19.84175781 9.564375 -18.87882812 10.1521875 -17.88671875 10.7578125 C-15.869763 12.00827275 -13.85414776 13.26089766 -11.83984375 14.515625 C-10.87949219 15.10085937 -9.91914063 15.68609375 -8.9296875 16.2890625 C-8.05554199 16.83256348 -7.18139648 17.37606445 -6.28076172 17.93603516 C-3.92029707 19.35545599 -3.92029707 19.35545599 -1 18 C-1 17.34 -1 16.68 -1 16 C0.5 14.375 0.5 14.375 2 13 C0.68 13 -0.64 13 -2 13 C-6 8.77777778 -6 8.77777778 -6 6 C-5.01 6 -4.02 6 -3 6 C-3 5.34 -3 4.68 -3 4 C-1.68 3.34 -0.36 2.68 1 2 C0.67 1.34 0.34 0.68 0 0 Z " fill="#88952B" transform="translate(35,55)"/>
<path d="M0 0 C2.01822917 0.06510417 4.03645833 0.13020833 6.0546875 0.1953125 C6.7146875 1.5153125 7.3746875 2.8353125 8.0546875 4.1953125 C10.0346875 4.1953125 12.0146875 4.1953125 14.0546875 4.1953125 C14.7146875 5.8453125 15.3746875 7.4953125 16.0546875 9.1953125 C10.00573053 12.25852121 3.90597521 15.18293267 -2.2578125 18.0078125 C-3.15048828 18.42740234 -4.04316406 18.84699219 -4.96289062 19.27929688 C-5.81947266 19.67052734 -6.67605469 20.06175781 -7.55859375 20.46484375 C-8.32985596 20.82167236 -9.10111816 21.17850098 -9.89575195 21.54614258 C-11.9453125 22.1953125 -11.9453125 22.1953125 -14.9453125 21.1953125 C-13.9553125 19.7103125 -13.9553125 19.7103125 -12.9453125 18.1953125 C-12.2853125 18.1953125 -11.6253125 18.1953125 -10.9453125 18.1953125 C-10.790625 16.8340625 -10.790625 16.8340625 -10.6328125 15.4453125 C-9.91390119 12.04682269 -9.08524491 10.82907547 -6.9453125 8.1953125 C-6.4296875 7.1640625 -5.9140625 6.1328125 -5.3828125 5.0703125 C-2.99816662 0.30102075 -2.99816662 0.30102075 0 0 Z " fill="#EDEFED" transform="translate(22.9453125,15.8046875)"/>
<path d="M0 0 C2.5 0.5 2.5 0.5 4.3125 2.125 C5.82103306 5.14206612 5.85489252 7.16401029 5.5 10.5 C4.51 11.985 4.51 11.985 3.5 13.5 C2.84 13.5 2.18 13.5 1.5 13.5 C1.5 15.48 1.5 17.46 1.5 19.5 C2.82 19.5 4.14 19.5 5.5 19.5 C5.5 18.51 5.5 17.52 5.5 16.5 C6.16 16.5 6.82 16.5 7.5 16.5 C7.5 17.49 7.5 18.48 7.5 19.5 C8.82 20.16 10.14 20.82 11.5 21.5 C10.51 21.5 9.52 21.5 8.5 21.5 C8.5 22.16 8.5 22.82 8.5 23.5 C1.9679803 26.38916256 1.9679803 26.38916256 -0.875 27.0625 C-1.41125 27.206875 -1.9475 27.35125 -2.5 27.5 C-2.83 28.16 -3.16 28.82 -3.5 29.5 C-4.04269531 29.15066406 -4.58539063 28.80132812 -5.14453125 28.44140625 C-5.85996094 27.98636719 -6.57539063 27.53132813 -7.3125 27.0625 C-8.02019531 26.61003906 -8.72789063 26.15757813 -9.45703125 25.69140625 C-11.58134552 24.35913661 -11.58134552 24.35913661 -14.5 23.5 C-13.17708855 19.53126566 -11.58850262 19.20094963 -7.9375 17.3125 C-6.92558594 16.78269531 -5.91367188 16.25289062 -4.87109375 15.70703125 C-4.08863281 15.30871094 -3.30617188 14.91039062 -2.5 14.5 C-2.98726562 13.901875 -3.47453125 13.30375 -3.9765625 12.6875 C-6.01688972 9.75779937 -5.93806055 8.0044844 -5.5 4.5 C-4.00114205 1.5022841 -3.31098525 0.66219705 0 0 Z " fill="#828F28" transform="translate(18.5,36.5)"/>
<path d="M0 0 C4.875 1.875 4.875 1.875 6 3 C6.45459858 5.65463121 6.70243238 8.32189138 7 11 C8.98 10.01 10.96 9.02 13 8 C13.33 9.32 13.66 10.64 14 12 C10.7 14.97 7.4 17.94 4 21 C2.68 20.34 1.36 19.68 0 19 C0 18.34 0 17.68 0 17 C-1.11375 17.4125 -2.2275 17.825 -3.375 18.25 C-4.00148438 18.48203125 -4.62796875 18.7140625 -5.2734375 18.953125 C-7.48685081 20.08545005 -7.48685081 20.08545005 -9 24 C-9.33 18.39 -9.66 12.78 -10 7 C-10.99 7.99 -11.98 8.98 -13 10 C-13.66 9.67 -14.32 9.34 -15 9 C-14.4375 7.0625 -14.4375 7.0625 -13 5 C-9.4375 4.1875 -9.4375 4.1875 -6 4 C-5.67 4.33 -5.34 4.66 -5 5 C-3.35 3.35 -1.7 1.7 0 0 Z M-3 13 C-3.33 14.32 -3.66 15.64 -4 17 C-2.68 16.34 -1.36 15.68 0 15 C-0.99 14.34 -1.98 13.68 -3 13 Z " fill="#899537" transform="translate(37,26)"/>
<path d="M0 0 C2.46800047 1.15173355 4.04783565 2.04783565 6 4 C6.46376812 11.30434783 6.46376812 11.30434783 4 15 C6.64 16.32 9.28 17.64 12 19 C11 22 11 22 9.25 23.25 C3.63998056 25.12000648 -1.97233481 21.35500657 -7 19 C-6.80083984 18.02160156 -6.80083984 18.02160156 -6.59765625 17.0234375 C-6.42105469 16.14945313 -6.24445313 15.27546875 -6.0625 14.375 C-5.87558594 13.46363281 -5.68867187 12.55226563 -5.49609375 11.61328125 C-4.94059194 8.8745071 -4.94059194 8.8745071 -4.625 5.5625 C-4 3 -4 3 -1.9375 1.125 C-1.298125 0.75375 -0.65875 0.3825 0 0 Z " fill="#798327" transform="translate(108,42)"/>
<path d="M0 0 C0.495 1.485 0.495 1.485 1 3 C-0.69326172 3.84663086 -2.38653096 4.69324667 -4.07983398 5.53979492 C-5.53780903 6.26886445 -6.99565214 6.99819787 -8.45336914 7.7277832 C-11.7719781 9.38836365 -15.09202646 11.04553995 -18.41796875 12.69140625 C-19.41441406 13.18511719 -20.41085938 13.67882812 -21.4375 14.1875 C-22.86255859 14.89326172 -22.86255859 14.89326172 -24.31640625 15.61328125 C-26.89721345 16.94688613 -29.37809105 18.39181115 -31.875 19.875 C-35.41894604 21.8580745 -37.87509399 22.74998291 -42 22 C-44.875 20.5 -44.875 20.5 -47 19 C-45 18 -45 18 -43.09448242 18.54614258 C-39.36125004 19.35510388 -36.38402993 16.61390842 -33.3125 14.6875 C-32.57080566 14.23979248 -31.82911133 13.79208496 -31.06494141 13.33081055 C-27.13149361 10.95409367 -23.23643315 8.51919759 -19.34765625 6.0703125 C-18.59766357 5.60794189 -17.8476709 5.14557129 -17.07495117 4.66918945 C-15.63880496 3.78353143 -14.21252076 2.88161983 -12.7980957 1.96166992 C-8.17598492 -0.87499843 -5.47206146 -1.39999495 0 0 Z " fill="#BAC5D0" transform="translate(107,77)"/>
<path d="M0 0 C2.9375 0.8125 2.9375 0.8125 4.9375 3.8125 C5.205625 4.67875 5.47375 5.545 5.75 6.4375 C7.30880276 10.86778153 9.58022275 14.76374136 11.9375 18.8125 C5.92632908 18.26330664 0.95983648 15.76388069 -4.4375 13.25 C-5.36433594 12.82525391 -6.29117188 12.40050781 -7.24609375 11.96289062 C-9.52125685 10.91913024 -11.79317035 9.86886818 -14.0625 8.8125 C-14.0625 8.1525 -14.0625 7.4925 -14.0625 6.8125 C-13.4025 6.8125 -12.7425 6.8125 -12.0625 6.8125 C-11.815 6.173125 -11.5675 5.53375 -11.3125 4.875 C-10.0625 2.8125 -10.0625 2.8125 -8.125 2.1875 C-7.1040625 2.001875 -7.1040625 2.001875 -6.0625 1.8125 C-3.0625 -0.1875 -3.0625 -0.1875 0 0 Z " fill="#F0F2F0" transform="translate(96.0625,20.1875)"/>
<path d="M0 0 C0.495 1.98 0.495 1.98 1 4 C-0.51723557 4.94331145 -2.0390053 5.87933111 -3.5625 6.8125 C-4.40941406 7.33457031 -5.25632812 7.85664062 -6.12890625 8.39453125 C-9 10 -9 10 -12.08203125 11.28125 C-17.66856912 13.60625237 -22.86289962 16.71887445 -28.125 19.6875 C-29.2385083 20.30947266 -30.3520166 20.93144531 -31.49926758 21.57226562 C-36.17643297 24.20020157 -40.83011352 26.82467702 -45.31640625 29.76953125 C-45.90470215 30.15471924 -46.49299805 30.53990723 -47.09912109 30.93676758 C-48.56298782 31.91665377 -50.00714996 32.92580818 -51.44921875 33.9375 C-54 35 -54 35 -57.1640625 34.24609375 C-58.56785156 33.62927734 -58.56785156 33.62927734 -60 33 C-60.886875 32.690625 -61.77375 32.38125 -62.6875 32.0625 C-65.05179704 30.97620136 -66.18874316 29.81125684 -68 28 C-70.10332891 27.28552357 -70.10332891 27.28552357 -72 27 C-72 26.34 -72 25.68 -72 25 C-73.32 24.34 -74.64 23.68 -76 23 C-76 22.34 -76 21.68 -76 21 C-71.00590786 22.78765798 -66.63433026 25.52415685 -62.171875 28.34179688 C-58.65280038 30.48074025 -58.65280038 30.48074025 -54.65185547 30.79516602 C-51.52326697 29.85705032 -49.01946211 28.50319473 -46.1953125 26.859375 C-45.06456299 26.20654541 -43.93381348 25.55371582 -42.76879883 24.88110352 C-41.55414449 24.17082926 -40.33954604 23.46045942 -39.125 22.75 C-37.8789451 22.02779483 -36.63243956 21.30636664 -35.38549805 20.58569336 C-33.47766181 19.48297958 -31.57011293 18.37980454 -29.66404724 17.27403259 C-22.43063598 13.07950974 -15.13962889 8.98854132 -7.84619141 4.89941406 C-6.95464355 4.39764648 -6.0630957 3.89587891 -5.14453125 3.37890625 C-3.97434448 2.72257202 -3.97434448 2.72257202 -2.78051758 2.05297852 C-1.04090435 1.12380321 -1.04090435 1.12380321 0 0 Z " fill="#274E5E" transform="translate(120,62)"/>
<path d="M0 0 C2.38202314 0.69717751 4.39796142 1.54747857 6.5625 2.75 C6.8925 1.76 7.2225 0.77 7.5625 -0.25 C9.5625 1.5625 9.5625 1.5625 11.5625 3.75 C11.5625 4.74 11.5625 5.73 11.5625 6.75 C14.0375 7.74 14.0375 7.74 16.5625 8.75 C16.5625 9.41 16.5625 10.07 16.5625 10.75 C18.5425 11.08 20.5225 11.41 22.5625 11.75 C20.75 13.3125 20.75 13.3125 18.5625 14.75 C17.5725 14.42 16.5825 14.09 15.5625 13.75 C15.5625 12.43 15.5625 11.11 15.5625 9.75 C14.840625 9.481875 14.11875 9.21375 13.375 8.9375 C10.5625 7.75 10.5625 7.75 8.0625 6.0625 C4.85462607 4.37836619 4.01749788 4.74051502 0.5625 5.75 C-2.1817375 6.97634252 -4.83850313 8.35460476 -7.5 9.75 C-8.90560482 10.48291336 -10.31310324 11.21220888 -11.72265625 11.9375 C-12.34019775 12.26105469 -12.95773926 12.58460937 -13.59399414 12.91796875 C-15.51979536 13.78714244 -17.37707493 14.29927312 -19.4375 14.75 C-19.4375 14.09 -19.4375 13.43 -19.4375 12.75 C-21.0875 12.75 -22.7375 12.75 -24.4375 12.75 C-24.1075 12.09 -23.7775 11.43 -23.4375 10.75 C-22.7775 11.08 -22.1175 11.41 -21.4375 11.75 C-21.4375 10.76 -21.4375 9.77 -21.4375 8.75 C-19.3342433 7.76888025 -17.22986311 6.79016866 -15.125 5.8125 C-13.36736328 4.99458984 -13.36736328 4.99458984 -11.57421875 4.16015625 C-8.4375 2.75 -8.4375 2.75 -5.4375 1.75 C-2.4375 -0.25 -2.4375 -0.25 0 0 Z " fill="#DFE5E7" transform="translate(31.4375,78.25)"/>
<path d="M0 0 C0 1.98 0 3.96 0 6 C-0.99 6.33 -1.98 6.66 -3 7 C-3.73323796 9.01508358 -3.73323796 9.01508358 -4 11 C-4.66 10.01 -5.32 9.02 -6 8 C-6.99 7.67 -7.98 7.34 -9 7 C-8.21735638 9.48235437 -7.42444723 11.96056096 -6.625 14.4375 C-6.29242188 15.49807617 -6.29242188 15.49807617 -5.953125 16.58007812 C-5.35897394 18.4062189 -4.68450381 20.20577032 -4 22 C-3.34 22.33 -2.68 22.66 -2 23 C-1.5859375 25.28515625 -1.5859375 25.28515625 -1.375 28.0625 C-1.30023438 28.98160156 -1.22546875 29.90070313 -1.1484375 30.84765625 C-1.09945312 31.55792969 -1.05046875 32.26820312 -1 33 C-2.051875 32.62875 -3.10375 32.2575 -4.1875 31.875 C-8.26947573 30.55710664 -8.26947573 30.55710664 -13 33 C-13 29.37 -13 25.74 -13 22 C-11.35 21.34 -9.7 20.68 -8 20 C-8.15597656 19.33613281 -8.31195313 18.67226563 -8.47265625 17.98828125 C-8.76462891 16.66376953 -8.76462891 16.66376953 -9.0625 15.3125 C-9.25972656 14.44238281 -9.45695312 13.57226562 -9.66015625 12.67578125 C-10.02032279 9.83998724 -9.70909969 7.75210018 -9 5 C-8.01 4.67 -7.02 4.34 -6 4 C-5.67 3.01 -5.34 2.02 -5 1 C-3 0 -3 0 0 0 Z " fill="#989FA9" transform="translate(72,40)"/>
<path d="M0 0 C0.99 0.495 0.99 0.495 2 1 C2 2.32 2 3.64 2 5 C0.75863281 5.65742187 0.75863281 5.65742187 -0.5078125 6.328125 C-8.05435898 10.33448994 -15.56835964 14.39645923 -23.0625 18.5 C-32.34474225 23.57791298 -41.66484939 28.5827726 -51 33.5625 C-51.65428986 33.91183594 -52.30857971 34.26117188 -52.98269653 34.62109375 C-54.86294901 35.62466827 -56.74384395 36.62702665 -58.625 37.62890625 C-59.71039063 38.20713135 -60.79578125 38.78535645 -61.9140625 39.38110352 C-62.93242188 39.91533936 -63.95078125 40.4495752 -65 41 C-66.05960938 41.58515381 -67.11921875 42.17030762 -68.2109375 42.77319336 C-71 44 -71 44 -74 43 C-70.87485276 40.49707308 -67.64359855 38.68850198 -64.07421875 36.8828125 C-62.88436613 36.27634953 -61.69459074 35.66973504 -60.50488281 35.06298828 C-59.88246704 34.74718811 -59.26005127 34.43138794 -58.61877441 34.10601807 C-47.57801541 28.49770887 -36.69019371 22.68837749 -25.95141602 16.51660156 C-19.38457508 12.7486552 -12.74344947 9.16547596 -5.95996094 5.80126953 C-1.9309989 3.88700915 -1.9309989 3.88700915 0 0 Z " fill="#688D9E" transform="translate(118,76)"/>
<path d="M0 0 C2.475 0.495 2.475 0.495 5 1 C3.625 2.5 3.625 2.5 2 4 C1.34 4 0.68 4 0 4 C0 4.66 0 5.32 0 6 C-0.99 6 -1.98 6 -3 6 C-2.88693303 7.95894361 -2.88693303 7.95894361 -2 10 C0.40952023 11.24714403 0.40952023 11.24714403 3 12 C3.66 12.33 4.32 12.66 5 13 C4.67 13.99 4.34 14.98 4 16 C3.34 16 2.68 16 2 16 C2 16.66 2 17.32 2 18 C1.34 18 0.68 18 0 18 C-0.33 18.66 -0.66 19.32 -1 20 C-3.5054576 18.55041382 -6.00418199 17.09101202 -8.5 15.625 C-9.21542969 15.2125 -9.93085938 14.8 -10.66796875 14.375 C-12.47924311 13.30548562 -14.24404186 12.1580962 -16 11 C-16 10.34 -16 9.68 -16 9 C-9.5 5 -9.5 5 -5 5 C-5 4.34 -5 3.68 -5 3 C-3.35 2.67 -1.7 2.34 0 2 C0 1.34 0 0.68 0 0 Z " fill="#859535" transform="translate(32,55)"/>
<path d="M0 0 C0 0.66 0 1.32 0 2 C0.66 2.33 1.32 2.66 2 3 C1.67 4.32 1.34 5.64 1 7 C3.97 7.495 3.97 7.495 7 8 C7.33 9.32 7.66 10.64 8 12 C8.66 11.34 9.32 10.68 10 10 C10.33 10.99 10.66 11.98 11 13 C11.66 13 12.32 13 13 13 C13 11.35 13 9.7 13 8 C14.65 9.32 16.3 10.64 18 12 C17.03558469 14.41103827 16.31202953 15.77404758 14.1875 17.3125 C10.70721649 18.40630339 8.22627089 17.6277464 5.00219727 15.97729492 C2.70753051 14.66602055 0.44435324 13.3127995 -1.8125 11.9375 C-2.99489258 11.22883789 -2.99489258 11.22883789 -4.20117188 10.50585938 C-6.13812608 9.34368685 -8.07078295 8.17495583 -10 7 C-10.33 7.66 -10.66 8.32 -11 9 C-10.63165987 6.34795104 -10.3132309 5.26159944 -8.22265625 3.515625 C-7.50980469 3.09796875 -6.79695313 2.6803125 -6.0625 2.25 C-5.35222656 1.82203125 -4.64195313 1.3940625 -3.91015625 0.953125 C-2 0 -2 0 0 0 Z " fill="#919634" transform="translate(54,76)"/>
<path d="M0 0 C5 3 5 3 5.9375 5.3125 C6 8 6 8 4 14 C7.96 15.98 11.92 17.96 16 20 C13.13861744 22.14603692 10.52211691 23.94946712 7.4375 25.6875 C6.29087891 26.34298828 6.29087891 26.34298828 5.12109375 27.01171875 C3 28 3 28 0 28 C0 18.76 0 9.52 0 0 Z " fill="#6E781F" transform="translate(98,46)"/>
<path d="M0 0 C3.16539492 1.78441381 6.09028256 3.82741098 9 6 C5.85512507 8.58410205 2.69294159 10.13785682 -1.0625 11.6875 C-2.10535156 12.12449219 -3.14820313 12.56148437 -4.22265625 13.01171875 C-7 14 -7 14 -10 14 C-10.33 12.02 -10.66 10.04 -11 8 C-10.34 8 -9.68 8 -9 8 C-9.0928125 6.8553125 -9.0928125 6.8553125 -9.1875 5.6875 C-9 3 -9 3 -7.875 1.1875 C-4.93954654 -0.67162052 -3.45112561 -0.5751876 0 0 Z " fill="#E9EEEE" transform="translate(66,6)"/>
<path d="M0 0 C0.66 0 1.32 0 2 0 C3.32 0 4.64 0 6 0 C6 0.66 6 1.32 6 2 C8.475 2.495 8.475 2.495 11 3 C9 4 9 4 6.25 4.375 C2.89865385 4.86768698 2.89865385 4.86768698 -0.25 6.625 C-1.61125 7.305625 -1.61125 7.305625 -3 8 C-3.66 7.67 -4.32 7.34 -5 7 C-4.67 6.01 -4.34 5.02 -4 4 C-5.11375 4.66 -6.2275 5.32 -7.375 6 C-10.75 8 -10.75 8 -13 8 C-13 8.66 -13 9.32 -13 10 C-12.34 10.66 -11.68 11.32 -11 12 C-12.98 12.99 -14.96 13.98 -17 15 C-16.67 13.68 -16.34 12.36 -16 11 C-17.65 11.33 -19.3 11.66 -21 12 C-21 11.34 -21 10.68 -21 10 C-21.66 9.67 -22.32 9.34 -23 9 C-19.92725154 7.29266954 -16.84034212 5.61274352 -13.75 3.9375 C-12.87730469 3.45216797 -12.00460938 2.96683594 -11.10546875 2.46679688 C-10.26113281 2.01240234 -9.41679688 1.55800781 -8.546875 1.08984375 C-7.77182617 0.66566162 -6.99677734 0.24147949 -6.19824219 -0.19555664 C-3.6265486 -1.13666397 -2.54335416 -0.87128432 0 0 Z " fill="#D9E0E3" transform="translate(49,91)"/>
<path d="M0 0 C1.61949011 2.57213134 2.04408751 3.67669159 1.625 6.75 C1.315625 7.86375 1.315625 7.86375 1 9 C0.195625 8.731875 -0.60875 8.46375 -1.4375 8.1875 C-6.0202511 7.94630257 -8.23757273 9.49351903 -12.046875 11.87109375 C-14 13 -14 13 -16 13 C-15.67 13.99 -15.34 14.98 -15 16 C-16.62249941 16.83819158 -18.24808497 17.6704116 -19.875 18.5 C-20.77992187 18.9640625 -21.68484375 19.428125 -22.6171875 19.90625 C-25 21 -25 21 -27 21 C-24.22606694 14.08075125 -7.81623207 0 0 0 Z " fill="#305D75" transform="translate(64,30)"/>
<path d="M0 0 C1.46224799 0.42423244 2.91973412 0.86490245 4.375 1.3125 C5.18710938 1.55613281 5.99921875 1.79976562 6.8359375 2.05078125 C9 3 9 3 11 6 C11.4375 8.5 11.4375 8.5 11 11 C8.8125 12.9375 8.8125 12.9375 6 14 C3.5 13.3125 3.5 13.3125 1 12 C0.071875 11.62875 -0.85625 11.2575 -1.8125 10.875 C-2.534375 10.58625 -3.25625 10.2975 -4 10 C-3.01 9.67 -2.02 9.34 -1 9 C-0.67 6.03 -0.34 3.06 0 0 Z " fill="#6B7825" transform="translate(67,20)"/>
<path d="M0 0 C0.99 0 1.98 0 3 0 C3.125 6.75 3.125 6.75 2 9 C0.36301158 9.96882988 -1.27842915 10.93121623 -2.9453125 11.84765625 C-6.37490936 13.77109936 -9.67945594 15.8955513 -13 18 C-13.33 15.69 -13.66 13.38 -14 11 C-14.99 10.67 -15.98 10.34 -17 10 C-16.34 9.67 -15.68 9.34 -15 9 C-14.01 9.33 -13.02 9.66 -12 10 C-12 10.99 -12 11.98 -12 13 C-11.34 13 -10.68 13 -10 13 C-9.7525 12.195625 -9.505 11.39125 -9.25 10.5625 C-8.8375 9.716875 -8.425 8.87125 -8 8 C-6.66666667 7.66666667 -5.33333333 7.33333333 -4 7 C-2.83046584 4.57616923 -2.83046584 4.57616923 -2 2 C-1.34 1.34 -0.68 0.68 0 0 Z " fill="#818F42" transform="translate(64,20)"/>
<path d="M0 0 C3.5647382 0.55795902 5.07226232 1.64034446 7.25 4.5 C11.64117482 11.28535808 10.47982417 19.2606138 10 27 C9.34 26.67 8.68 26.34 8 26 C7.5859375 23.71484375 7.5859375 23.71484375 7.375 20.9375 C7.30023438 20.01839844 7.22546875 19.09929687 7.1484375 18.15234375 C7.09945312 17.44207031 7.05046875 16.73179688 7 16 C6.01 15.67 5.02 15.34 4 15 C2.83203125 12.12890625 2.83203125 12.12890625 1.8125 8.5625 C1.29623047 6.80099609 1.29623047 6.80099609 0.76953125 5.00390625 C0 2 0 2 0 0 Z " fill="#D6D9D9" transform="translate(63,47)"/>
<path d="M0 0 C0.7425 0.309375 1.485 0.61875 2.25 0.9375 C5.55545675 2.25703609 5.55545675 2.25703609 9 3 C10.34187818 2.3507041 11.67479497 1.68268138 13 1 C15.75 0.875 15.75 0.875 18 1 C14.71533863 4.67882073 11.33639092 6.75150101 7 9 C6.34 9 5.68 9 5 9 C5 9.66 5 10.32 5 11 C4.34 11 3.68 11 3 11 C2.67 12.32 2.34 13.64 2 15 C1.01 15 0.02 15 -1 15 C-1 13.02 -1 11.04 -1 9 C-0.34 8.67 0.32 8.34 1 8 C0.67 5.36 0.34 2.72 0 0 Z " fill="#2A5673" transform="translate(64,30)"/>
<path d="M0 0 C0.66 0.33 1.32 0.66 2 1 C1.34 7.6 0.68 14.2 0 21 C-5 20 -5 20 -7 18 C-6.505 16.7315625 -6.505 16.7315625 -6 15.4375 C-4.80255842 12.02493707 -4.80255842 12.02493707 -5.1875 8.4375 C-5 5 -5 5 -2.5 2.0625 C-1.675 1.381875 -0.85 0.70125 0 0 Z " fill="#879629" transform="translate(108,42)"/>
<path d="M0 0 C-1.49801791 4.69881878 -5.29618144 6.39917102 -9.3125 8.75 C-9.97701172 9.16121094 -10.64152344 9.57242188 -11.32617188 9.99609375 C-14.93678119 12.14603125 -17.67204346 13.76601001 -22 13 C-22.99 12.34 -23.98 11.68 -25 11 C-27.43717258 11.27034634 -27.43717258 11.27034634 -30 12 C-31.66666667 12.33333333 -33.33333333 12.66666667 -35 13 C-35.33 12.01 -35.66 11.02 -36 10 C-35.278125 9.87625 -34.55625 9.7525 -33.8125 9.625 C-30.98159424 9.12007569 -30.98159424 9.12007569 -28.5625 7.75 C-24.92103844 6.68420637 -23.30186775 8.34906613 -20 10 C-15.04691569 8.58483306 -10.8503816 5.50307499 -6.55273438 2.74609375 C-2.20223787 0 -2.20223787 0 0 0 Z " fill="#1F465C" transform="translate(92,63)"/>
<path d="M0 0 C4.24067336 0.58635753 7.17090679 2.06177354 10.81640625 4.2734375 C11.91017578 4.9334375 13.00394531 5.5934375 14.13085938 6.2734375 C14.69442139 6.61858398 15.2579834 6.96373047 15.83862305 7.31933594 C17.5566202 8.37139934 19.2805206 9.41315439 21.00585938 10.453125 C31.30345411 16.69850989 31.30345411 16.69850989 34 19 C34 19.66 34 20.32 34 21 C29.18295494 19.26317698 24.82951519 16.80591372 20.375 14.3125 C19.5804541 13.86841797 18.7859082 13.42433594 17.96728516 12.96679688 C4.0192559 5.11625127 4.0192559 5.11625127 0 2 C0 1.34 0 0.68 0 0 Z " fill="#2B5970" transform="translate(4,60)"/>
<path d="M0 0 C2.36453193 2.36453193 2.36652704 3.25869929 2.6875 6.5 C2.77386719 7.2940625 2.86023437 8.088125 2.94921875 8.90625 C3 11 3 11 2 13 C1.34 13 0.68 13 0 13 C-0.66 15.31 -1.32 17.62 -2 20 C-2.33 20 -2.66 20 -3 20 C-3.33 14.39 -3.66 8.78 -4 3 C-4.99 3.99 -5.98 4.98 -7 6 C-7.66 5.67 -8.32 5.34 -9 5 C-6.87278148 0.28973041 -5.16692016 -0.38751901 0 0 Z " fill="#677727" transform="translate(31,30)"/>
<path d="M0 0 C3.397448 0.26134215 6.04094682 1.35608156 9 3 C9.33 2.01 9.66 1.02 10 0 C12 1.8125 12 1.8125 14 4 C14 4.99 14 5.98 14 7 C15.65 7.66 17.3 8.32 19 9 C19 9.66 19 10.32 19 11 C21.97 11.495 21.97 11.495 25 12 C23.1875 13.5625 23.1875 13.5625 21 15 C20.01 14.67 19.02 14.34 18 14 C18 12.68 18 11.36 18 10 C17.34 9.7525 16.68 9.505 16 9.25 C13.58839276 8.24516365 11.3665307 7.15363905 9.0625 5.9375 C5.72775999 4.23532721 2.75826884 3.37582688 -1 3 C-1 3.66 -1 4.32 -1 5 C-1.99 5 -2.98 5 -4 5 C-4 5.66 -4 6.32 -4 7 C-6.97 6.505 -6.97 6.505 -10 6 C-9.67 5.34 -9.34 4.68 -9 4 C-8.05125 3.855625 -7.1025 3.71125 -6.125 3.5625 C-2.99701561 3.31490703 -2.99701561 3.31490703 -1.4375 1.375 C-0.963125 0.92125 -0.48875 0.4675 0 0 Z " fill="#C2CAD1" transform="translate(29,78)"/>
<path d="M0 0 C0.14285714 8.57142857 0.14285714 8.57142857 -1 12 C-5.75 11.125 -5.75 11.125 -8 10 C-8.43489791 4.69424556 -8.43489791 4.69424556 -8 2 C-4.92424881 -0.74323755 -3.96809386 -1.32269795 0 0 Z " fill="#899622" transform="translate(99,48)"/>
<path d="M0 0 C3.84375 0.8046875 3.84375 0.8046875 5.25 2.5625 C6.40802061 6.326067 6.43941947 9.04522475 6 13 C3.5 15 3.5 15 1 16 C0 15 0 15 -0.09765625 11.62109375 C-0.09098369 10.22652923 -0.07902532 8.83198257 -0.0625 7.4375 C-0.05798828 6.72658203 -0.05347656 6.01566406 -0.04882812 5.28320312 C-0.03700864 3.52209987 -0.01907263 1.76103964 0 0 Z " fill="#6A7B26" transform="translate(51,15)"/>
<path d="M0 0 C2.87912872 0.60226873 5.02734155 1.4610317 7.50390625 3.0390625 C8.15738037 3.4515625 8.81085449 3.8640625 9.48413086 4.2890625 C10.16999268 4.72992188 10.85585449 5.17078125 11.5625 5.625 C12.26834229 6.07359375 12.97418457 6.5221875 13.70141602 6.984375 C15.12807964 7.89153025 16.55346919 8.8006925 17.97753906 9.71191406 C19.79738156 10.87095426 21.62570334 12.0139881 23.4609375 13.1484375 C24.44320313 13.75945312 25.42546875 14.37046875 26.4375 15 C27.30246094 15.53625 28.16742187 16.0725 29.05859375 16.625 C31 18 31 18 32 20 C27.15442863 18.59752988 23.07420354 16.45196037 18.8125 13.8125 C18.16337646 13.41538818 17.51425293 13.01827637 16.84545898 12.60913086 C15.52727031 11.80039334 14.21092172 10.98864849 12.89648438 10.17382812 C11.12942319 9.08010642 9.35492431 7.99967435 7.578125 6.921875 C6.58296875 6.30828125 5.5878125 5.6946875 4.5625 5.0625 C3.67691406 4.51722656 2.79132812 3.97195312 1.87890625 3.41015625 C1.25886719 2.94480469 0.63882812 2.47945313 0 2 C0 1.34 0 0.68 0 0 Z " fill="#64889B" transform="translate(0,91)"/>
<path d="M0 0 C0.763125 0.0825 1.52625 0.165 2.3125 0.25 C1.3225 0.745 1.3225 0.745 0.3125 1.25 C0.3125 5.54 0.3125 9.83 0.3125 14.25 C-3.6875 13.25 -3.6875 13.25 -5.6875 10.25 C-6.04239252 6.91401029 -6.00853306 4.89206612 -4.5 1.875 C-2.6875 0.25 -2.6875 0.25 0 0 Z " fill="#849934" transform="translate(18.6875,36.75)"/>
<path d="M0 0 C1.65 0.33 3.3 0.66 5 1 C3.625 2.5 3.625 2.5 2 4 C1.34 4 0.68 4 0 4 C0 4.66 0 5.32 0 6 C-0.99 6 -1.98 6 -3 6 C-2.73323796 7.98491642 -2.73323796 7.98491642 -2 10 C-1.01 10.33 -0.02 10.66 1 11 C0.67 11.99 0.34 12.98 0 14 C-2.4375 13.625 -2.4375 13.625 -5 13 C-5.33 12.34 -5.66 11.68 -6 11 C-5.67 10.01 -5.34 9.02 -5 8 C-5.99 7.67 -6.98 7.34 -8 7 C-8 6.34 -8 5.68 -8 5 C-7.01 5 -6.02 5 -5 5 C-5 4.34 -5 3.68 -5 3 C-3.35 2.67 -1.7 2.34 0 2 C0 1.34 0 0.68 0 0 Z " fill="#C4C99B" transform="translate(32,55)"/>
<path d="M0 0 C2 3 2 3 2.8125 5.625 C4.37130276 10.05528153 6.64272275 13.95124136 9 18 C7.02 17.67 5.04 17.34 3 17 C2.5978125 15.515 2.5978125 15.515 2.1875 14 C1.023161 9.90387216 -0.46711578 5.97156367 -2 2 C-5.37462715 2.54723683 -7.08235 3.0549 -10 5 C-10 2 -10 2 -8.375 0.25 C-5.15959814 -1.44231677 -3.42571325 -1.04260838 0 0 Z " fill="#D8DDE2" transform="translate(99,21)"/>
<path d="M0 0 C1.9609375 0.71484375 1.9609375 0.71484375 4 2 C4.5390625 4.12890625 4.5390625 4.12890625 4.625 6.5625 C4.68524737 8.93592047 4.68524737 8.93592047 5 11 C5.66 11.33 6.32 11.66 7 12 C7 12.66 7 13.32 7 14 C2.87248551 13.39301257 -0.3321148 11.96189209 -4 10 C-4 9.01 -4 8.02 -4 7 C-3.01 6.67 -2.02 6.34 -1 6 C-0.67 4.02 -0.34 2.04 0 0 Z " fill="#A1B7C5" transform="translate(43,56)"/>
<path d="M0 0 C0.8971875 0.309375 0.8971875 0.309375 1.8125 0.625 C1.8125 1.285 1.8125 1.945 1.8125 2.625 C2.4725 2.625 3.1325 2.625 3.8125 2.625 C3.625 5 3.625 5 2.8125 7.625 C0.5625 9.125 0.5625 9.125 -2.1875 9.625 C-5 8.4375 -5 8.4375 -7.1875 6.625 C-7.1875 5.635 -7.1875 4.645 -7.1875 3.625 C-6.5275 3.625 -5.8675 3.625 -5.1875 3.625 C-5.1875 2.965 -5.1875 2.305 -5.1875 1.625 C-2.1875 -0.375 -2.1875 -0.375 0 0 Z " fill="#879427" transform="translate(39.1875,69.375)"/>
<path d="M0 0 C0.66 0.33 1.32 0.66 2 1 C2 2.32 2 3.64 2 5 C-13.74487472 13.44646925 -13.74487472 13.44646925 -21 17 C-21.66 16.34 -22.32 15.68 -23 15 C-22.3387915 14.65219482 -21.67758301 14.30438965 -20.99633789 13.94604492 C-18.01306002 12.36972091 -15.03778872 10.77884813 -12.0625 9.1875 C-11.02158203 8.64029297 -9.98066406 8.09308594 -8.90820312 7.52929688 C-7.91884766 6.99755859 -6.92949219 6.46582031 -5.91015625 5.91796875 C-4.99371338 5.43094482 -4.07727051 4.9439209 -3.13305664 4.44213867 C-0.69908414 3.11191967 -0.69908414 3.11191967 0 0 Z " fill="#618FA1" transform="translate(118,76)"/>
<path d="M0 0 C4 2 4 2 5 3 C5.46993007 10.28391608 5.46993007 10.28391608 3.6875 13 C2 14 2 14 -1 14 C-0.67 9.38 -0.34 4.76 0 0 Z " fill="#697825" transform="translate(109,43)"/>
<path d="M0 0 C0.66 0.33 1.32 0.66 2 1 C0.84643555 3.46948242 0.84643555 3.46948242 -1 6 C-3.54370117 6.56762695 -3.54370117 6.56762695 -6.54296875 6.48828125 C-7.61611328 6.47216797 -8.68925781 6.45605469 -9.79492188 6.43945312 C-10.91447266 6.39755859 -12.03402344 6.35566406 -13.1875 6.3125 C-14.31865234 6.28994141 -15.44980469 6.26738281 -16.61523438 6.24414062 C-19.41147976 6.18514811 -22.20508097 6.1028824 -25 6 C-24.67 5.34 -24.34 4.68 -24 4 C-21.75 3.4375 -21.75 3.4375 -19 3 C-18.13375 2.773125 -17.2675 2.54625 -16.375 2.3125 C-14 2 -14 2 -11 4 C-7.26141996 4.60625622 -6.0021625 4.00130566 -2.6875 2 C-1.800625 1.34 -0.91375 0.68 0 0 Z " fill="#667324" transform="translate(81,71)"/>
<path d="M0 0 C0.33 0.99 0.66 1.98 1 3 C-2.30554532 4.9675865 -4.29607652 6.04140726 -8.1875 5.8125 C-11 5 -11 5 -14 3 C-8.8269357 -0.48390045 -6.32765881 -1.54963073 0 0 Z " fill="#9FAFBB" transform="translate(107,77)"/>
<path d="M0 0 C0.680625 0.4125 1.36125 0.825 2.0625 1.25 C2.0625 1.91 2.0625 2.57 2.0625 3.25 C-0.37166515 5.35195899 -2.9849273 6.97837442 -5.9375 8.25 C-8.9375 7.5625 -8.9375 7.5625 -10.9375 6.25 C-9.72596625 2.61539876 -8.08699422 1.7021721 -4.79296875 -0.09765625 C-2.9375 -0.75 -2.9375 -0.75 0 0 Z " fill="#F5F5EE" transform="translate(49.9375,73.75)"/>
<path d="M0 0 C4 1 4 1 5 2 C5.07205511 3.68608966 5.08386068 5.37500659 5.0625 7.0625 C5.05347656 7.98160156 5.04445313 8.90070312 5.03515625 9.84765625 C5.02355469 10.55792969 5.01195312 11.26820312 5 12 C3.35 12.33 1.7 12.66 0 13 C0 8.71 0 4.42 0 0 Z " fill="#687526" transform="translate(38,27)"/>
<path d="M0 0 C4.67184549 1.70136105 8.91809237 4.02612336 13.25 6.4375 C13.9821875 6.83259766 14.714375 7.22769531 15.46875 7.63476562 C16.51289062 8.21581055 16.51289062 8.21581055 17.578125 8.80859375 C18.21137695 9.15720459 18.84462891 9.50581543 19.49707031 9.86499023 C21 11 21 11 22 14 C11.62068966 10.62068966 11.62068966 10.62068966 8 7 C5.89667109 6.28552357 5.89667109 6.28552357 4 6 C4 5.34 4 4.68 4 4 C2.68 3.34 1.36 2.68 0 2 C0 1.34 0 0.68 0 0 Z " fill="#40687B" transform="translate(44,83)"/>
<path d="M0 0 C0.99 0.66 1.98 1.32 3 2 C0.8967433 2.98111975 -1.20763689 3.95983134 -3.3125 4.9375 C-4.48425781 5.48277344 -5.65601562 6.02804688 -6.86328125 6.58984375 C-10 8 -10 8 -13 9 C-13 8.34 -13 7.68 -13 7 C-12.01 6.34 -11.02 5.68 -10 5 C-10.33 4.34 -10.66 3.68 -11 3 C-7.19670792 -0.97616899 -5.44151578 -1.22156477 0 0 Z " fill="#BBC4CD" transform="translate(98,82)"/>
<path d="M0 0 C0.66 0.33 1.32 0.66 2 1 C2 1.99 2 2.98 2 4 C1.01 4.33 0.02 4.66 -1 5 C-1.33 5.66 -1.66 6.32 -2 7 C-5.23717425 8.52866562 -8.43338671 9.61442019 -12 10 C-12.66 9.34 -13.32 8.68 -14 8 C-11.7136988 6.63597957 -9.42178251 5.28365726 -7.125 3.9375 C-6.47402344 3.54755859 -5.82304688 3.15761719 -5.15234375 2.75585938 C-3.46934275 1.77555467 -1.73703801 0.88101568 0 0 Z " fill="#AAB8C4" transform="translate(86,84)"/>
<path d="M0 0 C0.66 0.33 1.32 0.66 2 1 C1.67 4.96 1.34 8.92 1 13 C-0.32 13 -1.64 13 -3 13 C-4.19334591 9.41996227 -4.33543224 6.75684104 -4 3 C-2 1.0625 -2 1.0625 0 0 Z " fill="#889A2A" transform="translate(37,26)"/>
<path d="M0 0 C0 1.98 0 3.96 0 6 C-0.99 6.33 -1.98 6.66 -3 7 C-3.73323796 9.01508358 -3.73323796 9.01508358 -4 11 C-4.66 10.01 -5.32 9.02 -6 8 C-6.99 7.67 -7.98 7.34 -9 7 C-9.33 7.99 -9.66 8.98 -10 10 C-9.67 8.35 -9.34 6.7 -9 5 C-8.01 4.67 -7.02 4.34 -6 4 C-5.67 3.01 -5.34 2.02 -5 1 C-3 0 -3 0 0 0 Z " fill="#476377" transform="translate(72,40)"/>
<path d="M0 0 C1.32 0.33 2.64 0.66 4 1 C5.42041821 3.84083641 5.31452272 5.85477278 5 9 C3.0625 11.375 3.0625 11.375 1 13 C0.67 13 0.34 13 0 13 C0 8.71 0 4.42 0 0 Z " fill="#697723" transform="translate(19,38)"/>
<path d="M0 0 C2.125 0.375 2.125 0.375 4 1 C2.7934375 2.0828125 2.7934375 2.0828125 1.5625 3.1875 C-1.12494636 6.13713625 -1.40498258 7.23155636 -2 11 C-2.9793879 12.02019573 -3.97895449 13.02149805 -5 14 C-5.71447643 16.10332891 -5.71447643 16.10332891 -6 18 C-6.99 18 -7.98 18 -9 18 C-8.50860597 13.6757325 -7.72123293 11.34920977 -5 8 C-4.484375 6.96875 -3.96875 5.9375 -3.4375 4.875 C-2 2 -2 2 0 0 Z " fill="#CFD7DB" transform="translate(21,16)"/>
<path d="M0 0 C0 4.95 0 9.9 0 15 C-0.33 14.01 -0.66 13.02 -1 12 C-1.99 11.67 -2.98 11.34 -4 11 C-5.1875 7.4375 -5.1875 7.4375 -6 4 C-1.125 0 -1.125 0 0 0 Z " fill="#8A9F32" transform="translate(28,32)"/>
<path d="M0 0 C1.32 0.33 2.64 0.66 4 1 C4 4.96 4 8.92 4 13 C2.02 13.99 2.02 13.99 0 15 C0 10.05 0 5.1 0 0 Z " fill="#9CA3AB" transform="translate(73,59)"/>
<path d="M0 0 C0.86625 0.2475 1.7325 0.495 2.625 0.75 C2.625 2.07 2.625 3.39 2.625 4.75 C0.375 5.875 0.375 5.875 -2.375 6.75 C-4.5 5.9375 -4.5 5.9375 -6.375 4.75 C-7.365 4.42 -8.355 4.09 -9.375 3.75 C-4.20576923 -0.31153846 -4.20576923 -0.31153846 0 0 Z " fill="#C8CED5" transform="translate(110.375,72.25)"/>
<path d="M0 0 C0.66 0 1.32 0 2 0 C2.10807131 1.93627769 2.1856225 3.87427756 2.25 5.8125 C2.29640625 6.89144531 2.3428125 7.97039063 2.390625 9.08203125 C2 12 2 12 0.171875 13.94921875 C-2 15 -2 15 -5 14 C-4 12 -4 12 -1 11 C-1.20625 9.741875 -1.4125 8.48375 -1.625 7.1875 C-2.21335669 3.5985242 -2.16617415 3.24926122 0 0 Z " fill="#949DA7" transform="translate(89,51)"/>
<path d="M0 0 C0.99 0 1.98 0 3 0 C3.125 6.75 3.125 6.75 2 9 C-0.0625 9.625 -0.0625 9.625 -2 10 C-2.1953125 3.9453125 -2.1953125 3.9453125 -2 2 C-1.34 1.34 -0.68 0.68 0 0 Z " fill="#8B9A2A" transform="translate(64,20)"/>
<path d="M0 0 C0.33 1.32 0.66 2.64 1 4 C-0.59622656 5.03320481 -2.20229106 6.05122429 -3.8125 7.0625 C-5.15248047 7.91521484 -5.15248047 7.91521484 -6.51953125 8.78515625 C-9 10 -9 10 -12 9 C-12 8.34 -12 7.68 -12 7 C-10.04775792 5.71593601 -8.03659238 4.52058322 -6 3.375 C-4.88625 2.74335937 -3.7725 2.11171875 -2.625 1.4609375 C-1.75875 0.97882812 -0.8925 0.49671875 0 0 Z " fill="#1A4356" transform="translate(120,62)"/>
<path d="M0 0 C0.53625 0.226875 1.0725 0.45375 1.625 0.6875 C1.625 1.3475 1.625 2.0075 1.625 2.6875 C-1.28100261 3.94414978 -3.17104584 4.6875 -6.375 4.6875 C-6.375 5.3475 -6.375 6.0075 -6.375 6.6875 C-8.025 6.6875 -9.675 6.6875 -11.375 6.6875 C-11.045 6.0275 -10.715 5.3675 -10.375 4.6875 C-9.715 5.0175 -9.055 5.3475 -8.375 5.6875 C-8.375 4.6975 -8.375 3.7075 -8.375 2.6875 C-2.95961538 -0.38942308 -2.95961538 -0.38942308 0 0 Z " fill="#698799" transform="translate(18.375,84.3125)"/>
<path d="M0 0 C1.98 0.99 1.98 0.99 4 2 C4 4.97 4 7.94 4 11 C2.68 10.34 1.36 9.68 0 9 C0 6.03 0 3.06 0 0 Z " fill="#2D5A77" transform="translate(51,61)"/>
<path d="M0 0 C-3.5458668 2.954889 -7.63781033 5.45934985 -12 7 C-12.99 6.67 -13.98 6.34 -15 6 C-10.40144929 2.28578596 -6.07508565 -0.53603697 0 0 Z " fill="#5D7E93" transform="translate(59,113)"/>
<path d="M0 0 C5.00028314 1.34153938 9.19067503 3.48370003 13 7 C13 7.66 13 8.32 13 9 C8.33138019 7.39516194 3.90741833 5.02509806 0 2 C0 1.34 0 0.68 0 0 Z " fill="#40687C" transform="translate(25,72)"/>
<path d="M0 0 C0.66 0 1.32 0 2 0 C2 0.66 2 1.32 2 2 C2.66 2.33 3.32 2.66 4 3 C2.35 3 0.7 3 -1 3 C-1 3.66 -1 4.32 -1 5 C-1.99 5 -2.98 5 -4 5 C-4 5.66 -4 6.32 -4 7 C-6.97 6.505 -6.97 6.505 -10 6 C-9.67 5.34 -9.34 4.68 -9 4 C-8.05125 3.855625 -7.1025 3.71125 -6.125 3.5625 C-2.8040817 2.96473471 -2.12073266 2.43884256 0 0 Z " fill="#6F8C9C" transform="translate(29,78)"/>
<path d="M0 0 C0.598125 0.226875 1.19625 0.45375 1.8125 0.6875 C1.19375 1.244375 0.575 1.80125 -0.0625 2.375 C-2.26809342 4.7752046 -3.00793142 6.69925959 -4.1875 9.6875 C-5.1775 10.3475 -6.1675 11.0075 -7.1875 11.6875 C-7.1875 10.3675 -7.1875 9.0475 -7.1875 7.6875 C-6.5275 7.6875 -5.8675 7.6875 -5.1875 7.6875 C-5.2803125 6.5428125 -5.2803125 6.5428125 -5.375 5.375 C-5.1875 2.6875 -5.1875 2.6875 -3.9375 0.8125 C-2.1875 -0.3125 -2.1875 -0.3125 0 0 Z " fill="#CBD2D5" transform="translate(62.1875,6.3125)"/>
<path d="M0 0 C3.15131196 1.52790883 6.17251554 3.2186207 9.1875 5 C10.06792969 5.515625 10.94835938 6.03125 11.85546875 6.5625 C14 8 14 8 15 10 C9.33822218 8.5482621 4.50540116 5.68441695 0 2 C0 1.34 0 0.68 0 0 Z " fill="#698BA7" transform="translate(17,101)"/>
<path d="M0 0 C1.98 0.495 1.98 0.495 4 1 C4.33 3.64 4.66 6.28 5 9 C3.02 8.01 1.04 7.02 -1 6 C-0.67 4.02 -0.34 2.04 0 0 Z " fill="#4D7790" transform="translate(66,62)"/>
<path d="M0 0 C1.98 0 3.96 0 6 0 C6 0.99 6 1.98 6 3 C3 5 3 5 0.8125 4.625 C0.214375 4.41875 -0.38375 4.2125 -1 4 C-0.67 2.68 -0.34 1.36 0 0 Z " fill="#7E97AB" transform="translate(42,108)"/>
<path d="M0 0 C0.66 0.33 1.32 0.66 2 1 C1.01 1.33 0.02 1.66 -1 2 C-1 2.66 -1 3.32 -1 4 C-0.34 4.66 0.32 5.32 1 6 C-0.98 6.99 -2.96 7.98 -5 9 C-4.67 7.68 -4.34 6.36 -4 5 C-5.32 5.33 -6.64 5.66 -8 6 C-8 5.34 -8 4.68 -8 4 C-6.71349294 3.30289269 -5.42059335 2.61757124 -4.125 1.9375 C-3.40570313 1.55464844 -2.68640625 1.17179687 -1.9453125 0.77734375 C-1.30335937 0.52082031 -0.66140625 0.26429687 0 0 Z " fill="#CBD4D8" transform="translate(37,97)"/>
<path d="M0 0 C3.37503669 1.1858237 5.64722731 2.27573689 8 5 C6.02 5.99 4.04 6.98 2 8 C0.74335022 5.09399739 0 3.20395416 0 0 Z " fill="#184158" transform="translate(64,30)"/>
<path d="M0 0 C0.99 0.33 1.98 0.66 3 1 C2.34 1.474375 1.68 1.94875 1 2.4375 C-1.89658976 6.14875563 -1.34969446 9.45397207 -1 14 C-3.32319452 11.91713595 -3.94910155 11.33447554 -4.4375 8.125 C-3.90917428 4.35124488 -2.57702263 2.73808654 0 0 Z " fill="#839943" transform="translate(48,15)"/>
<path d="M0 0 C3.7910119 1.44950455 7.3874638 3.15172566 11 5 C11 5.66 11 6.32 11 7 C6.87248551 6.39301257 3.6678852 4.96189209 0 3 C0 2.01 0 1.02 0 0 Z " fill="#3C667B" transform="translate(39,63)"/>
<path d="M0 0 C0 3.96 0 7.92 0 12 C-0.33 12 -0.66 12 -1 12 C-1.33 9.03 -1.66 6.06 -2 3 C-2.99 3.99 -3.98 4.98 -5 6 C-5.66 5.67 -6.32 5.34 -7 5 C-5.22678182 1.07358831 -4.52021524 0 0 0 Z " fill="#78892D" transform="translate(29,30)"/>
<path d="M0 0 C3.625 0.375 3.625 0.375 7 1 C3.7321794 3.17854707 0.61941735 4.49760034 -3 6 C-2.42655063 3.13275314 -2.1385485 2.1385485 0 0 Z " fill="#D5D8DD" transform="translate(94,82)"/>
<path d="M0 0 C1.98 0 3.96 0 6 0 C6 0.66 6 1.32 6 2 C0.82421875 5.22265625 0.82421875 5.22265625 -1 6 C-1.99 5.67 -2.98 5.34 -4 5 C-3.34 4.67 -2.68 4.34 -2 4 C-2.33 3.34 -2.66 2.68 -3 2 C-2.01 2 -1.02 2 0 2 C0 1.34 0 0.68 0 0 Z " fill="#D2DCDE" transform="translate(28,81)"/>
<path d="M0 0 C0 0.99 0 1.98 0 3 C-2.49409061 4.57035335 -3.70443416 5.0274945 -6.6875 4.75 C-7.8321875 4.37875 -7.8321875 4.37875 -9 4 C-9.33 3.34 -9.66 2.68 -10 2 C-6.7 1.34 -3.4 0.68 0 0 Z " fill="#818E25" transform="translate(119,61)"/>
<path d="M0 0 C0.99 0 1.98 0 3 0 C3 1.98 3 3.96 3 6 C1.02 6.99 1.02 6.99 -1 8 C-1.04241723 5.66705225 -1.04092937 3.33297433 -1 1 C-0.67 0.67 -0.34 0.34 0 0 Z " fill="#497189" transform="translate(78,61)"/>
<path d="M0 0 C0.33 1.98 0.66 3.96 1 6 C-0.98 6.99 -0.98 6.99 -3 8 C-4 7 -4 7 -4.25 4.5625 C-4.1675 3.716875 -4.085 2.87125 -4 2 C-1 0 -1 0 0 0 Z " fill="#4C738A" transform="translate(88,56)"/>
<path d="M0 0 C1.98 0 3.96 0 6 0 C6 1.65 6 3.3 6 5 C5.34 5 4.68 5 4 5 C3.67 4.34 3.34 3.68 3 3 C2.34 3.66 1.68 4.32 1 5 C0.01 4.67 -0.98 4.34 -2 4 C-1.34 4 -0.68 4 0 4 C0 2.68 0 1.36 0 0 Z " fill="#84881E" transform="translate(61,84)"/>
<path d="M0 0 C3.465 1.485 3.465 1.485 7 3 C6.01 3.99 5.02 4.98 4 6 C1.525 5.01 1.525 5.01 -1 4 C-1 1 -1 1 0 0 Z " fill="#365E74" transform="translate(70,82)"/>
<path d="M0 0 C2.0625 0.4375 2.0625 0.4375 4 1 C3.67 2.32 3.34 3.64 3 5 C1.68 5 0.36 5 -1 5 C-1 1 -1 1 0 0 Z " fill="#E78A37" transform="translate(95,66)"/>
<path d="M0 0 C3.45925163 1.2491742 6.14693203 2.67527795 9 5 C8.34 5.66 7.68 6.32 7 7 C3.535 5.02 3.535 5.02 0 3 C0 2.01 0 1.02 0 0 Z " fill="#2D6177" transform="translate(17,67)"/>
<path d="M0 0 C-9 6 -9 6 -12 6 C-9.40401988 0.00927665 -6.20086134 -0.23399477 0 0 Z " fill="#3C697D" transform="translate(49,45)"/>
<path d="M0 0 C1.98 0.495 1.98 0.495 4 1 C3.67 2.65 3.34 4.3 3 6 C1.68 5.67 0.36 5.34 -1 5 C-0.67 3.35 -0.34 1.7 0 0 Z " fill="#BA6E3B" transform="translate(62,33)"/>
<path d="M0 0 C1.65 0.33 3.3 0.66 5 1 C4.34 2.32 3.68 3.64 3 5 C1.35 4.67 -0.3 4.34 -2 4 C-1.34 2.68 -0.68 1.36 0 0 Z " fill="#C2CFD4" transform="translate(74,80)"/>
<path d="M0 0 C0 0.66 0 1.32 0 2 C0.66 2.33 1.32 2.66 2 3 C2 3.99 2 4.98 2 6 C0.35 6 -1.3 6 -3 6 C-3 5.01 -3 4.02 -3 3 C-3.66 2.67 -4.32 2.34 -5 2 C-2 0 -2 0 0 0 Z " fill="#C4A64A" transform="translate(54,76)"/>
<path d="M0 0 C0.99 0 1.98 0 3 0 C3 1.98 3 3.96 3 6 C1.68 6 0.36 6 -1 6 C-1.042721 4.33388095 -1.04063832 2.66617115 -1 1 C-0.67 0.67 -0.34 0.34 0 0 Z " fill="#CD7135" transform="translate(69,40)"/>
<path d="M0 0 C-2.1875 2.0625 -2.1875 2.0625 -5 4 C-7.8125 3.75 -7.8125 3.75 -10 3 C-4.375 -1.3125 -4.375 -1.3125 0 0 Z " fill="#C8D0D9" transform="translate(26,92)"/>
<path d="M0 0 C0 0.66 0 1.32 0 2 C-1.36125 1.9071875 -1.36125 1.9071875 -2.75 1.8125 C-6.28982642 2.01672076 -7.44931155 2.64551835 -10 5 C-10 2 -10 2 -8.375 0.25 C-5.22485359 -1.40797179 -3.37974305 -0.84493576 0 0 Z " fill="#C3DEDF" transform="translate(99,21)"/>
<path d="M0 0 C2.125 0.9375 2.125 0.9375 4 2 C3.67 2.99 3.34 3.98 3 5 C1.35 4.67 -0.3 4.34 -2 4 C-2 3.01 -2 2.02 -2 1 C-1.34 0.67 -0.68 0.34 0 0 Z " fill="#BDCBCF" transform="translate(29,64)"/>
<path d="M0 0 C-2.17424117 2.50037734 -3.73045798 3.43628586 -7 4 C-7.33 3.01 -7.66 2.02 -8 1 C-4.93251126 -0.86240388 -3.40254489 -1.2151946 0 0 Z " fill="#DADECC" transform="translate(24,63)"/>
<path d="M0 0 C2.31 0.33 4.62 0.66 7 1 C5.25 3.0625 5.25 3.0625 3 5 C0.75 4.75 0.75 4.75 -1 4 C-0.67 2.68 -0.34 1.36 0 0 Z " fill="#7E95A8" transform="translate(100,76)"/>
<path d="M0 0 C-0.33 0.99 -0.66 1.98 -1 3 C-2.65 3.33 -4.3 3.66 -6 4 C-6.33 3.01 -6.66 2.02 -7 1 C-3.375 -1.125 -3.375 -1.125 0 0 Z " fill="#315B6D" transform="translate(37,68)"/>
<path d="M0 0 C8.71428571 1.85714286 8.71428571 1.85714286 11 5 C10.01 5.495 10.01 5.495 9 6 C7.31791365 5.02616054 5.65261839 4.02304948 4 3 C1.80869466 2.30420546 1.80869466 2.30420546 0 2 C0 1.34 0 0.68 0 0 Z " fill="#497085" transform="translate(55,91)"/>
<path d="M0 0 C-1.75 3.875 -1.75 3.875 -4 5 C-4.66 4.67 -5.32 4.34 -6 4 C-6 6.31 -6 8.62 -6 11 C-6.33 11 -6.66 11 -7 11 C-7.43695709 5.66912345 -7.43695709 5.66912345 -7 3 C-4.59140121 0.97170628 -3.16955691 0 0 0 Z " fill="#899B36" transform="translate(98,47)"/>
<path d="M0 0 C3.63 0 7.26 0 11 0 C11 0.66 11 1.32 11 2 C9.35 2.66 7.7 3.32 6 4 C6 3.34 6 2.68 6 2 C3.03 1.505 3.03 1.505 0 1 C0 0.67 0 0.34 0 0 Z " fill="#7E8A20" transform="translate(85,75)"/>
<path d="M0 0 C1.65 0.33 3.3 0.66 5 1 C5 2.32 5 3.64 5 5 C3.02 4.01 1.04 3.02 -1 2 C-0.67 1.34 -0.34 0.68 0 0 Z " fill="#EFF2F3" transform="translate(49,70)"/>
<path d="M0 0 C1.98 0.99 1.98 0.99 4 2 C4 3.65 4 5.3 4 7 C2.68 6.34 1.36 5.68 0 5 C0 3.35 0 1.7 0 0 Z " fill="#5090B0" transform="translate(43,56)"/>
<path d="M0 0 C1.65 0 3.3 0 5 0 C5.33 1.32 5.66 2.64 6 4 C5.01 4.33 4.02 4.66 3 5 C3 4.34 3 3.68 3 3 C2.01 2.67 1.02 2.34 0 2 C0 1.34 0 0.68 0 0 Z " fill="#B0B97C" transform="translate(24,60)"/>
<path d="M0 0 C0.66 0.33 1.32 0.66 2 1 C2 2.32 2 3.64 2 5 C-0.31 5.33 -2.62 5.66 -5 6 C-4.360625 5.566875 -3.72125 5.13375 -3.0625 4.6875 C-0.73253997 3.08760823 -0.73253997 3.08760823 0 0 Z " fill="#749AA6" transform="translate(118,76)"/>
<path d="M0 0 C1.98 0.99 3.96 1.98 6 3 C5.01 3.66 4.02 4.32 3 5 C1.35 4.01 -0.3 3.02 -2 2 C-1.34 1.34 -0.68 0.68 0 0 Z " fill="#BEC6D0" transform="translate(25,74)"/>
<path d="M0 0 C2.0625 0.4375 2.0625 0.4375 4 1 C4 1.66 4 2.32 4 3 C4.66 3 5.32 3 6 3 C6 3.66 6 4.32 6 5 C4.35 5 2.7 5 1 5 C1 4.01 1 3.02 1 2 C0.34 1.67 -0.32 1.34 -1 1 C-0.67 0.67 -0.34 0.34 0 0 Z " fill="#73811F" transform="translate(37,69)"/>
<path d="M0 0 C2.625 -0.1875 2.625 -0.1875 5 0 C5 0.66 5 1.32 5 2 C3.1875 3.0625 3.1875 3.0625 1 4 C0.01 3.67 -0.98 3.34 -2 3 C-1.34 2.01 -0.68 1.02 0 0 Z " fill="#E2EAF2" transform="translate(10,34)"/>
<path d="M0 0 C2.125 0.375 2.125 0.375 4 1 C2.37660195 2.70884005 0.70680947 4.37446717 -1 6 C-1.66 6 -2.32 6 -3 6 C-2.42655063 3.13275314 -2.1385485 2.1385485 0 0 Z " fill="#D6DEE0" transform="translate(21,16)"/>
</svg>
