<svg xmlns="http://www.w3.org/2000/svg" xmlns:xlink="http://www.w3.org/1999/xlink" width="1920" zoomAndPan="magnify" viewBox="0 0 1440 809.999993" height="1080" preserveAspectRatio="xMidYMid meet" version="1.0"><defs><clipPath id="2a6695fa3b"><path d="M 420.300781 81 L 1019.550781 81 L 1019.550781 729 L 420.300781 729 Z M 420.300781 81 " clip-rule="nonzero"/></clipPath></defs><path fill="#4187b5" d="M 988.675781 149.132812 L 694.355469 90.757812 L 430.144531 240.0625 L 716.808594 323.089844 Z M 988.675781 149.132812 " fill-opacity="1" fill-rule="evenodd"/><path fill="#ffbf31" d="M 724.464844 555.589844 L 872.261719 498.644531 L 988.675781 406.289062 C 1011.589844 364.9375 1021.300781 322.714844 988.675781 277.710938 L 847.53125 329.539062 L 724.464844 427.011719 Z M 724.464844 555.589844 " fill-opacity="1" fill-rule="evenodd"/><path fill="#ffbf31" d="M 724.464844 427.015625 C 756.410156 468.996094 745.894531 512.144531 724.464844 555.59375 L 567.503906 544.824219 L 430.144531 497.214844 C 451.578125 453.769531 462.089844 410.621094 430.144531 368.636719 L 589.71875 382.214844 Z M 724.464844 427.015625 " fill-opacity="1" fill-rule="evenodd"/><path fill="#60b7fe" d="M 724.464844 427.015625 L 988.675781 277.710938 C 1011.589844 236.359375 1021.300781 194.140625 988.675781 149.132812 L 724.464844 298.4375 Z M 724.464844 427.015625 " fill-opacity="1" fill-rule="evenodd"/><path fill="#60b7fe" d="M 724.464844 298.4375 C 756.410156 340.421875 745.894531 383.566406 724.464844 427.015625 L 430.144531 368.636719 C 451.578125 325.191406 462.089844 282.042969 430.144531 240.058594 Z M 724.464844 298.4375 " fill-opacity="1" fill-rule="evenodd"/><path fill="#19cfba" d="M 724.464844 684.167969 L 988.675781 534.863281 C 1011.589844 493.515625 1021.300781 451.292969 988.675781 406.289062 L 724.464844 555.589844 Z M 724.464844 684.167969 " fill-opacity="1" fill-rule="evenodd"/><path fill="#19cfba" d="M 724.464844 555.589844 C 756.410156 597.574219 745.894531 640.722656 724.464844 684.167969 L 430.144531 625.792969 C 451.578125 582.347656 462.089844 539.199219 430.144531 497.214844 Z M 724.464844 555.589844 " fill-opacity="1" fill-rule="evenodd"/><path fill="#4187b5" d="M 570.726562 590.683594 L 570.726562 719.050781 L 535.679688 677.148438 L 500.632812 719.050781 L 500.632812 576.78125 Z M 570.726562 590.683594 " fill-opacity="1" fill-rule="evenodd"/><g clip-path="url(#2a6695fa3b)"><path fill="#1e2f3f" d="M 491.035156 317.730469 C 492.085938 312.410156 497.253906 308.953125 502.5625 310.011719 L 683.234375 345.839844 C 688.550781 346.898438 692 352.0625 690.957031 357.390625 C 689.898438 362.746094 684.679688 366.160156 679.414062 365.097656 L 498.757812 329.269531 C 493.433594 328.210938 489.976562 323.058594 491.035156 317.730469 Z M 491.035156 446.304688 C 492.085938 440.984375 497.253906 437.535156 502.5625 438.578125 L 683.234375 474.417969 C 688.550781 475.476562 692 480.632812 690.957031 485.960938 C 689.898438 491.316406 684.679688 494.730469 679.414062 493.671875 L 498.757812 457.851562 C 493.433594 456.785156 489.976562 451.632812 491.035156 446.304688 Z M 981.429688 527.710938 L 745.101562 661.257812 C 756.410156 630.054688 760.742188 594.226562 738.667969 558.871094 L 985.648438 419.296875 C 1005.960938 451.8125 1004.578125 484.851562 981.429688 527.710938 Z M 580.566406 645.628906 L 718.933594 673.070312 C 740.378906 626.769531 740.328125 594.675781 718.835938 564.488281 L 450.253906 511.214844 C 468.40625 549.160156 458.472656 587.054688 444.398438 618.613281 L 490.835938 627.828125 L 490.835938 576.789062 L 490.851562 576.789062 C 490.851562 570.667969 496.480469 565.957031 502.5625 567.160156 L 683.234375 602.996094 C 688.550781 604.0625 692 609.214844 690.957031 614.542969 C 689.898438 619.902344 684.679688 623.316406 679.414062 622.253906 L 580.566406 602.65625 Z M 543.234375 670.867188 C 539.320312 666.171875 532.101562 666.167969 528.175781 670.867188 L 510.46875 692.027344 L 510.46875 588.742188 L 560.941406 598.761719 L 560.941406 692.027344 Z M 696.042969 101.109375 L 960.824219 153.628906 L 722.832031 288.117188 L 458.042969 235.589844 Z M 981.429688 270.554688 C 1004.578125 227.699219 1005.960938 194.65625 985.648438 162.148438 L 738.667969 301.714844 C 760.742188 337.070312 756.40625 372.898438 745.101562 404.101562 Z M 718.835938 435.914062 L 450.242188 382.632812 C 468.398438 420.585938 458.472656 458.480469 444.398438 490.039062 L 718.917969 544.484375 C 740.371094 498.203125 740.3125 466.089844 718.835938 435.914062 Z M 450.253906 254.058594 C 468.40625 292.003906 458.472656 329.898438 444.398438 361.472656 L 718.933594 415.914062 C 740.378906 369.613281 740.328125 337.519531 718.835938 307.351562 Z M 981.414062 399.144531 C 1004.554688 356.289062 1005.960938 323.238281 985.632812 290.738281 L 738.667969 430.296875 C 760.742188 465.652344 756.40625 501.46875 745.101562 532.679688 Z M 1000.1875 277.097656 C 1012.121094 254.382812 1018.230469 234.636719 1019.332031 215.363281 C 1020.773438 189.976562 1013.34375 166.425781 996.648438 143.386719 C 995.152344 141.3125 992.960938 139.988281 990.601562 139.523438 L 990.601562 139.515625 L 696.289062 81.148438 C 693.992188 80.695312 691.59375 81.074219 689.550781 82.222656 L 425.34375 231.535156 L 425.351562 231.542969 C 420.21875 234.429688 418.726562 241.253906 422.359375 246.027344 C 447.078125 278.511719 446.789062 312.773438 421.359375 364.3125 C 419.695312 367.695312 420.105469 371.566406 422.367188 374.585938 L 422.359375 374.601562 C 447.078125 407.085938 446.789062 441.355469 421.359375 492.894531 L 421.390625 492.902344 C 419.753906 496.210938 420.089844 500.1875 422.359375 503.175781 C 447.078125 535.652344 446.789062 569.929688 421.359375 621.464844 C 418.519531 627.242188 421.917969 634.179688 428.253906 635.4375 L 490.835938 647.855469 L 490.835938 719.0625 C 490.835938 728.175781 502.292969 732.394531 508.1875 725.355469 L 535.710938 692.464844 L 563.214844 725.355469 C 569.082031 732.367188 580.566406 728.226562 580.566406 719.0625 L 580.566406 665.648438 L 722.582031 693.8125 C 724.878906 694.277344 727.296875 693.847656 729.304688 692.714844 L 729.304688 692.722656 L 993.519531 543.425781 C 995.101562 542.53125 996.40625 541.226562 997.277344 539.628906 C 1011.136719 514.628906 1018.140625 493.304688 1019.332031 472.519531 C 1020.664062 449.015625 1014.378906 427.078125 1000.1875 405.664062 C 1012.121094 382.964844 1018.230469 363.210938 1019.332031 343.945312 C 1020.664062 320.4375 1014.378906 298.503906 1000.1875 277.097656 Z M 1000.1875 277.097656 " fill-opacity="1" fill-rule="evenodd"/></g></svg>